solid SDCardContainerLid
facet normal 0.0 0.0 -1.0
  outer loop
    vertex 66.0 31.999999999999996 0.0
    vertex 0.0 0.0 0.0
    vertex 0.0 31.999999999999996 0.0
  endloop
endfacet
facet normal 0.0 0.0 -1.0
  outer loop
    vertex 0.0 0.0 0.0
    vertex 66.0 31.999999999999996 0.0
    vertex 66.0 0.0 0.0
  endloop
endfacet
facet normal -0.0 -0.0 1.0
  outer loop
    vertex 0.0 0.0 1.9999999999999998
    vertex 3.499999999999999 3.499999999999999 1.9999999999999998
    vertex 0.0 31.999999999999996 1.9999999999999998
  endloop
endfacet
facet normal -0.0 -0.0 1.0
  outer loop
    vertex 3.499999999999999 3.499999999999999 1.9999999999999998
    vertex 0.0 0.0 1.9999999999999998
    vertex 66.0 0.0 1.9999999999999998
  endloop
endfacet
facet normal -0.0 -0.0 1.0
  outer loop
    vertex 3.499999999999999 3.499999999999999 1.9999999999999998
    vertex 66.0 0.0 1.9999999999999998
    vertex 62.5 3.499999999999999 1.9999999999999998
  endloop
endfacet
facet normal -0.0 -0.0 1.0
  outer loop
    vertex 62.5 3.499999999999999 1.9999999999999998
    vertex 66.0 0.0 1.9999999999999998
    vertex 62.5 28.5 1.9999999999999998
  endloop
endfacet
facet normal -0.0 -0.0 1.0
  outer loop
    vertex 0.0 31.999999999999996 1.9999999999999998
    vertex 3.499999999999999 28.5 1.9999999999999998
    vertex 66.0 31.999999999999996 1.9999999999999998
  endloop
endfacet
facet normal -0.0 -0.0 1.0
  outer loop
    vertex 3.499999999999999 28.5 1.9999999999999998
    vertex 0.0 31.999999999999996 1.9999999999999998
    vertex 3.499999999999999 3.499999999999999 1.9999999999999998
  endloop
endfacet
facet normal -0.0 -0.0 1.0
  outer loop
    vertex 66.0 31.999999999999996 1.9999999999999998
    vertex 3.499999999999999 28.5 1.9999999999999998
    vertex 62.5 28.5 1.9999999999999998
  endloop
endfacet
facet normal -0.0 -0.0 1.0
  outer loop
    vertex 66.0 31.999999999999996 1.9999999999999998
    vertex 62.5 28.5 1.9999999999999998
    vertex 66.0 0.0 1.9999999999999998
  endloop
endfacet
facet normal -0.9999999999999999 0.0 0.0
  outer loop
    vertex 0.0 31.999999999999996 1.9999999999999998
    vertex 0.0 0.0 0.0
    vertex 0.0 0.0 1.9999999999999998
  endloop
endfacet
facet normal -0.9999999999999999 0.0 0.0
  outer loop
    vertex 0.0 0.0 0.0
    vertex 0.0 31.999999999999996 1.9999999999999998
    vertex 0.0 31.999999999999996 0.0
  endloop
endfacet
facet normal -0.0 1.0 0.0
  outer loop
    vertex 0.0 31.999999999999996 1.9999999999999998
    vertex 66.0 31.999999999999996 0.0
    vertex 0.0 31.999999999999996 0.0
  endloop
endfacet
facet normal -0.0 1.0 0.0
  outer loop
    vertex 66.0 31.999999999999996 0.0
    vertex 0.0 31.999999999999996 1.9999999999999998
    vertex 66.0 31.999999999999996 1.9999999999999998
  endloop
endfacet
facet normal 0.9999999999999999 0.0 0.0
  outer loop
    vertex 66.0 31.999999999999996 0.0
    vertex 66.0 0.0 1.9999999999999998
    vertex 66.0 0.0 0.0
  endloop
endfacet
facet normal 0.9999999999999999 0.0 0.0
  outer loop
    vertex 66.0 0.0 1.9999999999999998
    vertex 66.0 31.999999999999996 0.0
    vertex 66.0 31.999999999999996 1.9999999999999998
  endloop
endfacet
facet normal -0.0 -1.0 -0.0
  outer loop
    vertex 66.0 0.0 1.9999999999999998
    vertex 0.0 0.0 0.0
    vertex 66.0 0.0 0.0
  endloop
endfacet
facet normal -0.0 -1.0 -0.0
  outer loop
    vertex 0.0 0.0 0.0
    vertex 66.0 0.0 1.9999999999999998
    vertex 0.0 0.0 1.9999999999999998
  endloop
endfacet
facet normal 0.0 0.0 1.0
  outer loop
    vertex 62.5 3.499999999999999 4.5
    vertex 3.499999999999999 28.5 4.5
    vertex 3.499999999999999 3.499999999999999 4.5
  endloop
endfacet
facet normal 0.0 0.0 1.0
  outer loop
    vertex 3.499999999999999 28.5 4.5
    vertex 62.5 3.499999999999999 4.5
    vertex 62.5 28.5 4.5
  endloop
endfacet
facet normal 1.0 -0.0 0.0
  outer loop
    vertex 62.5 28.5 1.9999999999999998
    vertex 62.5 3.499999999999999 4.5
    vertex 62.5 3.499999999999999 1.9999999999999998
  endloop
endfacet
facet normal 1.0 -0.0 0.0
  outer loop
    vertex 62.5 3.499999999999999 4.5
    vertex 62.5 28.5 1.9999999999999998
    vertex 62.5 28.5 4.5
  endloop
endfacet
facet normal 0.0 1.0 0.0
  outer loop
    vertex 3.499999999999999 28.5 4.5
    vertex 62.5 28.5 1.9999999999999998
    vertex 3.499999999999999 28.5 1.9999999999999998
  endloop
endfacet
facet normal 0.0 1.0 0.0
  outer loop
    vertex 62.5 28.5 1.9999999999999998
    vertex 3.499999999999999 28.5 4.5
    vertex 62.5 28.5 4.5
  endloop
endfacet
facet normal -1.0 -0.0 -0.0
  outer loop
    vertex 3.499999999999999 28.5 4.5
    vertex 3.499999999999999 3.499999999999999 1.9999999999999998
    vertex 3.499999999999999 3.499999999999999 4.5
  endloop
endfacet
facet normal -1.0 -0.0 -0.0
  outer loop
    vertex 3.499999999999999 3.499999999999999 1.9999999999999998
    vertex 3.499999999999999 28.5 4.5
    vertex 3.499999999999999 28.5 1.9999999999999998
  endloop
endfacet
facet normal 0.0 -1.0 0.0
  outer loop
    vertex 62.5 3.499999999999999 4.5
    vertex 3.499999999999999 3.499999999999999 1.9999999999999998
    vertex 62.5 3.499999999999999 1.9999999999999998
  endloop
endfacet
facet normal 0.0 -1.0 0.0
  outer loop
    vertex 3.499999999999999 3.499999999999999 1.9999999999999998
    vertex 62.5 3.499999999999999 4.5
    vertex 3.499999999999999 3.499999999999999 4.5
  endloop
endfacet
endsolid SDCardContainerLid
