solid SDCardContainerV1
facet normal 0.0 0.0 -1.0
  outer loop
    vertex 66.0 31.999999999999996 0.0
    vertex 0.0 0.0 0.0
    vertex 0.0 31.999999999999996 0.0
  endloop
endfacet
facet normal 0.0 0.0 -1.0
  outer loop
    vertex 0.0 0.0 0.0
    vertex 66.0 31.999999999999996 0.0
    vertex 66.0 0.0 0.0
  endloop
endfacet
facet normal -0.9999999999999999 0.0 0.0
  outer loop
    vertex 0.0 31.999999999999996 38.0
    vertex 0.0 0.0 0.0
    vertex 0.0 0.0 38.0
  endloop
endfacet
facet normal -0.9999999999999999 0.0 0.0
  outer loop
    vertex 0.0 0.0 0.0
    vertex 0.0 31.999999999999996 38.0
    vertex 0.0 31.999999999999996 0.0
  endloop
endfacet
facet normal -0.0 1.0 0.0
  outer loop
    vertex 0.0 31.999999999999996 38.0
    vertex 66.0 31.999999999999996 0.0
    vertex 0.0 31.999999999999996 0.0
  endloop
endfacet
facet normal -0.0 1.0 0.0
  outer loop
    vertex 66.0 31.999999999999996 0.0
    vertex 0.0 31.999999999999996 38.0
    vertex 66.0 31.999999999999996 38.0
  endloop
endfacet
facet normal 0.9999999999999999 0.0 0.0
  outer loop
    vertex 66.0 31.999999999999996 0.0
    vertex 66.0 0.0 38.0
    vertex 66.0 0.0 0.0
  endloop
endfacet
facet normal 0.9999999999999999 0.0 0.0
  outer loop
    vertex 66.0 0.0 38.0
    vertex 66.0 31.999999999999996 0.0
    vertex 66.0 31.999999999999996 38.0
  endloop
endfacet
facet normal -0.0 -1.0 -0.0
  outer loop
    vertex 66.0 0.0 38.0
    vertex 0.0 0.0 0.0
    vertex 66.0 0.0 0.0
  endloop
endfacet
facet normal -0.0 -1.0 -0.0
  outer loop
    vertex 0.0 0.0 0.0
    vertex 66.0 0.0 38.0
    vertex 0.0 0.0 38.0
  endloop
endfacet
facet normal 8.745326989103591e-33 -1.445914317465461e-32 1.0
  outer loop
    vertex 8.999999999999986 6.0 1.9999999999999998
    vertex 6.999999999999988 25.999999999999996 1.9999999999999998
    vertex 6.999999999999988 6.0 1.9999999999999998
  endloop
endfacet
facet normal 8.745326989103591e-33 -1.445914317465461e-32 1.0
  outer loop
    vertex 6.999999999999988 25.999999999999996 1.9999999999999998
    vertex 8.999999999999986 6.0 1.9999999999999998
    vertex 8.999999999999988 25.999999999999996 1.9999999999999998
  endloop
endfacet
facet normal 8.745326989103591e-33 -1.445914317465461e-32 1.0
  outer loop
    vertex 6.999999999999988 3.0 1.9999999999999998
    vertex 3.0 28.999999999999996 1.9999999999999998
    vertex 3.0 3.0 1.9999999999999998
  endloop
endfacet
facet normal 8.745326989103591e-33 -1.445914317465461e-32 1.0
  outer loop
    vertex 3.0 28.999999999999996 1.9999999999999998
    vertex 6.999999999999988 3.0 1.9999999999999998
    vertex 6.999999999999988 28.999999999999996 1.9999999999999998
  endloop
endfacet
facet normal 8.745326989103591e-33 -1.445914317465461e-32 1.0
  outer loop
    vertex 6.999999999999988 28.999999999999996 1.9999999999999998
    vertex 6.999999999999988 3.0 1.9999999999999998
    vertex 6.999999999999988 6.0 1.9999999999999998
  endloop
endfacet
facet normal 8.745326989103591e-33 -1.445914317465461e-32 1.0
  outer loop
    vertex 6.999999999999988 28.999999999999996 1.9999999999999998
    vertex 6.999999999999988 6.0 1.9999999999999998
    vertex 6.999999999999988 25.999999999999996 1.9999999999999998
  endloop
endfacet
facet normal 8.745326989103591e-33 -1.445914317465461e-32 1.0
  outer loop
    vertex 21.999999999999986 3.0 1.9999999999999998
    vertex 18.999999999999986 6.0 1.9999999999999998
    vertex 18.999999999999986 3.0 1.9999999999999998
  endloop
endfacet
facet normal 8.745326989103591e-33 -1.445914317465461e-32 1.0
  outer loop
    vertex 53.99999999999999 6.0 1.9999999999999998
    vertex 51.99999999999999 25.999999999999996 1.9999999999999998
    vertex 51.99999999999999 6.0 1.9999999999999998
  endloop
endfacet
facet normal 8.745326989103591e-33 -1.445914317465461e-32 1.0
  outer loop
    vertex 51.99999999999999 25.999999999999996 1.9999999999999998
    vertex 53.99999999999999 6.0 1.9999999999999998
    vertex 53.99999999999999 25.999999999999996 1.9999999999999998
  endloop
endfacet
facet normal 8.745326989103591e-33 -1.445914317465461e-32 1.0
  outer loop
    vertex 51.99999999999999 3.0 1.9999999999999998
    vertex 48.99999999999999 6.0 1.9999999999999998
    vertex 48.99999999999999 3.0 1.9999999999999998
  endloop
endfacet
facet normal 8.745326989103591e-33 -1.445914317465461e-32 1.0
  outer loop
    vertex 48.99999999999999 6.0 1.9999999999999998
    vertex 51.99999999999999 3.0 1.9999999999999998
    vertex 48.99999999999999 25.999999999999996 1.9999999999999998
  endloop
endfacet
facet normal 8.745326989103591e-33 -1.445914317465461e-32 1.0
  outer loop
    vertex 48.99999999999999 25.999999999999996 1.9999999999999998
    vertex 51.99999999999999 3.0 1.9999999999999998
    vertex 48.99999999999999 28.999999999999996 1.9999999999999998
  endloop
endfacet
facet normal 8.745326989103591e-33 -1.445914317465461e-32 1.0
  outer loop
    vertex 48.99999999999999 28.999999999999996 1.9999999999999998
    vertex 51.99999999999999 3.0 1.9999999999999998
    vertex 51.99999999999999 28.999999999999996 1.9999999999999998
  endloop
endfacet
facet normal 8.745326989103591e-33 -1.445914317465461e-32 1.0
  outer loop
    vertex 51.99999999999999 28.999999999999996 1.9999999999999998
    vertex 51.99999999999999 3.0 1.9999999999999998
    vertex 51.99999999999999 6.0 1.9999999999999998
  endloop
endfacet
facet normal 8.745326989103591e-33 -1.445914317465461e-32 1.0
  outer loop
    vertex 51.99999999999999 28.999999999999996 1.9999999999999998
    vertex 51.99999999999999 6.0 1.9999999999999998
    vertex 51.99999999999999 25.999999999999996 1.9999999999999998
  endloop
endfacet
facet normal 8.745326989103591e-33 -1.445914317465461e-32 1.0
  outer loop
    vertex 48.99999999999999 6.0 1.9999999999999998
    vertex 46.99999999999999 25.999999999999996 1.9999999999999998
    vertex 46.99999999999999 6.0 1.9999999999999998
  endloop
endfacet
facet normal 8.745326989103591e-33 -1.445914317465461e-32 1.0
  outer loop
    vertex 46.99999999999999 25.999999999999996 1.9999999999999998
    vertex 48.99999999999999 6.0 1.9999999999999998
    vertex 48.99999999999999 25.999999999999996 1.9999999999999998
  endloop
endfacet
facet normal 8.745326989103591e-33 -1.445914317465461e-32 1.0
  outer loop
    vertex 46.99999999999999 3.0 1.9999999999999998
    vertex 43.99999999999999 6.0 1.9999999999999998
    vertex 43.99999999999999 3.0 1.9999999999999998
  endloop
endfacet
facet normal 8.745326989103591e-33 -1.445914317465461e-32 1.0
  outer loop
    vertex 43.99999999999999 6.0 1.9999999999999998
    vertex 46.99999999999999 3.0 1.9999999999999998
    vertex 43.99999999999999 25.999999999999996 1.9999999999999998
  endloop
endfacet
facet normal 8.745326989103591e-33 -1.445914317465461e-32 1.0
  outer loop
    vertex 43.99999999999999 25.999999999999996 1.9999999999999998
    vertex 46.99999999999999 3.0 1.9999999999999998
    vertex 43.99999999999999 28.999999999999996 1.9999999999999998
  endloop
endfacet
facet normal 8.745326989103591e-33 -1.445914317465461e-32 1.0
  outer loop
    vertex 43.99999999999999 28.999999999999996 1.9999999999999998
    vertex 46.99999999999999 3.0 1.9999999999999998
    vertex 46.99999999999999 28.999999999999996 1.9999999999999998
  endloop
endfacet
facet normal 8.745326989103591e-33 -1.445914317465461e-32 1.0
  outer loop
    vertex 46.99999999999999 28.999999999999996 1.9999999999999998
    vertex 46.99999999999999 3.0 1.9999999999999998
    vertex 46.99999999999999 6.0 1.9999999999999998
  endloop
endfacet
facet normal 8.745326989103591e-33 -1.445914317465461e-32 1.0
  outer loop
    vertex 46.99999999999999 28.999999999999996 1.9999999999999998
    vertex 46.99999999999999 6.0 1.9999999999999998
    vertex 46.99999999999999 25.999999999999996 1.9999999999999998
  endloop
endfacet
facet normal 8.745326989103591e-33 -1.445914317465461e-32 1.0
  outer loop
    vertex 43.99999999999999 6.0 1.9999999999999998
    vertex 41.99999999999999 25.999999999999996 1.9999999999999998
    vertex 41.99999999999999 6.0 1.9999999999999998
  endloop
endfacet
facet normal 8.745326989103591e-33 -1.445914317465461e-32 1.0
  outer loop
    vertex 41.99999999999999 25.999999999999996 1.9999999999999998
    vertex 43.99999999999999 6.0 1.9999999999999998
    vertex 43.99999999999999 25.999999999999996 1.9999999999999998
  endloop
endfacet
facet normal 8.745326989103591e-33 -1.445914317465461e-32 1.0
  outer loop
    vertex 41.99999999999999 3.0 1.9999999999999998
    vertex 38.99999999999999 6.0 1.9999999999999998
    vertex 38.99999999999999 3.0 1.9999999999999998
  endloop
endfacet
facet normal 8.745326989103591e-33 -1.445914317465461e-32 1.0
  outer loop
    vertex 38.99999999999999 6.0 1.9999999999999998
    vertex 41.99999999999999 3.0 1.9999999999999998
    vertex 38.99999999999999 25.999999999999996 1.9999999999999998
  endloop
endfacet
facet normal 8.745326989103591e-33 -1.445914317465461e-32 1.0
  outer loop
    vertex 38.99999999999999 25.999999999999996 1.9999999999999998
    vertex 41.99999999999999 3.0 1.9999999999999998
    vertex 38.99999999999999 28.999999999999996 1.9999999999999998
  endloop
endfacet
facet normal 8.745326989103591e-33 -1.445914317465461e-32 1.0
  outer loop
    vertex 38.99999999999999 28.999999999999996 1.9999999999999998
    vertex 41.99999999999999 3.0 1.9999999999999998
    vertex 41.99999999999999 28.999999999999996 1.9999999999999998
  endloop
endfacet
facet normal 8.745326989103591e-33 -1.445914317465461e-32 1.0
  outer loop
    vertex 41.99999999999999 28.999999999999996 1.9999999999999998
    vertex 41.99999999999999 3.0 1.9999999999999998
    vertex 41.99999999999999 6.0 1.9999999999999998
  endloop
endfacet
facet normal 8.745326989103591e-33 -1.445914317465461e-32 1.0
  outer loop
    vertex 41.99999999999999 28.999999999999996 1.9999999999999998
    vertex 41.99999999999999 6.0 1.9999999999999998
    vertex 41.99999999999999 25.999999999999996 1.9999999999999998
  endloop
endfacet
facet normal 8.745326989103591e-33 -1.445914317465461e-32 1.0
  outer loop
    vertex 38.99999999999999 6.0 1.9999999999999998
    vertex 36.999999999999986 25.999999999999996 1.9999999999999998
    vertex 36.999999999999986 6.0 1.9999999999999998
  endloop
endfacet
facet normal 8.745326989103591e-33 -1.445914317465461e-32 1.0
  outer loop
    vertex 36.999999999999986 25.999999999999996 1.9999999999999998
    vertex 38.99999999999999 6.0 1.9999999999999998
    vertex 38.99999999999999 25.999999999999996 1.9999999999999998
  endloop
endfacet
facet normal 8.745326989103591e-33 -1.445914317465461e-32 1.0
  outer loop
    vertex 36.999999999999986 3.0 1.9999999999999998
    vertex 33.999999999999986 6.0 1.9999999999999998
    vertex 33.999999999999986 3.0 1.9999999999999998
  endloop
endfacet
facet normal 8.745326989103591e-33 -1.445914317465461e-32 1.0
  outer loop
    vertex 33.999999999999986 6.0 1.9999999999999998
    vertex 36.999999999999986 3.0 1.9999999999999998
    vertex 33.999999999999986 25.999999999999996 1.9999999999999998
  endloop
endfacet
facet normal 8.745326989103591e-33 -1.445914317465461e-32 1.0
  outer loop
    vertex 33.999999999999986 25.999999999999996 1.9999999999999998
    vertex 36.999999999999986 3.0 1.9999999999999998
    vertex 33.999999999999986 28.999999999999996 1.9999999999999998
  endloop
endfacet
facet normal 8.745326989103591e-33 -1.445914317465461e-32 1.0
  outer loop
    vertex 33.999999999999986 28.999999999999996 1.9999999999999998
    vertex 36.999999999999986 3.0 1.9999999999999998
    vertex 36.999999999999986 28.999999999999996 1.9999999999999998
  endloop
endfacet
facet normal 8.745326989103591e-33 -1.445914317465461e-32 1.0
  outer loop
    vertex 36.999999999999986 28.999999999999996 1.9999999999999998
    vertex 36.999999999999986 3.0 1.9999999999999998
    vertex 36.999999999999986 6.0 1.9999999999999998
  endloop
endfacet
facet normal 8.745326989103591e-33 -1.445914317465461e-32 1.0
  outer loop
    vertex 36.999999999999986 28.999999999999996 1.9999999999999998
    vertex 36.999999999999986 6.0 1.9999999999999998
    vertex 36.999999999999986 25.999999999999996 1.9999999999999998
  endloop
endfacet
facet normal 8.745326989103591e-33 -1.445914317465461e-32 1.0
  outer loop
    vertex 33.999999999999986 6.0 1.9999999999999998
    vertex 31.999999999999986 25.999999999999996 1.9999999999999998
    vertex 31.999999999999986 6.0 1.9999999999999998
  endloop
endfacet
facet normal 8.745326989103591e-33 -1.445914317465461e-32 1.0
  outer loop
    vertex 31.999999999999986 25.999999999999996 1.9999999999999998
    vertex 33.999999999999986 6.0 1.9999999999999998
    vertex 33.999999999999986 25.999999999999996 1.9999999999999998
  endloop
endfacet
facet normal 8.745326989103591e-33 -1.445914317465461e-32 1.0
  outer loop
    vertex 31.999999999999986 3.0 1.9999999999999998
    vertex 28.999999999999986 6.0 1.9999999999999998
    vertex 28.999999999999986 3.0 1.9999999999999998
  endloop
endfacet
facet normal 8.745326989103591e-33 -1.445914317465461e-32 1.0
  outer loop
    vertex 28.999999999999986 6.0 1.9999999999999998
    vertex 31.999999999999986 3.0 1.9999999999999998
    vertex 28.999999999999986 25.999999999999996 1.9999999999999998
  endloop
endfacet
facet normal 8.745326989103591e-33 -1.445914317465461e-32 1.0
  outer loop
    vertex 28.999999999999986 25.999999999999996 1.9999999999999998
    vertex 31.999999999999986 3.0 1.9999999999999998
    vertex 28.999999999999986 28.999999999999996 1.9999999999999998
  endloop
endfacet
facet normal 8.745326989103591e-33 -1.445914317465461e-32 1.0
  outer loop
    vertex 28.999999999999986 28.999999999999996 1.9999999999999998
    vertex 31.999999999999986 3.0 1.9999999999999998
    vertex 31.999999999999986 28.999999999999996 1.9999999999999998
  endloop
endfacet
facet normal 8.745326989103591e-33 -1.445914317465461e-32 1.0
  outer loop
    vertex 31.999999999999986 28.999999999999996 1.9999999999999998
    vertex 31.999999999999986 3.0 1.9999999999999998
    vertex 31.999999999999986 6.0 1.9999999999999998
  endloop
endfacet
facet normal 8.745326989103591e-33 -1.445914317465461e-32 1.0
  outer loop
    vertex 31.999999999999986 28.999999999999996 1.9999999999999998
    vertex 31.999999999999986 6.0 1.9999999999999998
    vertex 31.999999999999986 25.999999999999996 1.9999999999999998
  endloop
endfacet
facet normal 8.745326989103591e-33 -1.445914317465461e-32 1.0
  outer loop
    vertex 28.999999999999986 6.0 1.9999999999999998
    vertex 26.999999999999986 25.999999999999996 1.9999999999999998
    vertex 26.999999999999986 6.0 1.9999999999999998
  endloop
endfacet
facet normal 8.745326989103591e-33 -1.445914317465461e-32 1.0
  outer loop
    vertex 26.999999999999986 25.999999999999996 1.9999999999999998
    vertex 28.999999999999986 6.0 1.9999999999999998
    vertex 28.999999999999986 25.999999999999996 1.9999999999999998
  endloop
endfacet
facet normal 8.745326989103591e-33 -1.445914317465461e-32 1.0
  outer loop
    vertex 26.999999999999986 3.0 1.9999999999999998
    vertex 23.999999999999986 6.0 1.9999999999999998
    vertex 23.999999999999986 3.0 1.9999999999999998
  endloop
endfacet
facet normal 8.745326989103591e-33 -1.445914317465461e-32 1.0
  outer loop
    vertex 23.999999999999986 6.0 1.9999999999999998
    vertex 26.999999999999986 3.0 1.9999999999999998
    vertex 23.999999999999986 25.999999999999996 1.9999999999999998
  endloop
endfacet
facet normal 8.745326989103591e-33 -1.445914317465461e-32 1.0
  outer loop
    vertex 23.999999999999986 25.999999999999996 1.9999999999999998
    vertex 26.999999999999986 3.0 1.9999999999999998
    vertex 23.999999999999986 28.999999999999996 1.9999999999999998
  endloop
endfacet
facet normal 8.745326989103591e-33 -1.445914317465461e-32 1.0
  outer loop
    vertex 23.999999999999986 28.999999999999996 1.9999999999999998
    vertex 26.999999999999986 3.0 1.9999999999999998
    vertex 26.999999999999986 28.999999999999996 1.9999999999999998
  endloop
endfacet
facet normal 8.745326989103591e-33 -1.445914317465461e-32 1.0
  outer loop
    vertex 26.999999999999986 28.999999999999996 1.9999999999999998
    vertex 26.999999999999986 3.0 1.9999999999999998
    vertex 26.999999999999986 6.0 1.9999999999999998
  endloop
endfacet
facet normal 8.745326989103591e-33 -1.445914317465461e-32 1.0
  outer loop
    vertex 26.999999999999986 28.999999999999996 1.9999999999999998
    vertex 26.999999999999986 6.0 1.9999999999999998
    vertex 26.999999999999986 25.999999999999996 1.9999999999999998
  endloop
endfacet
facet normal 8.745326989103591e-33 -1.445914317465461e-32 1.0
  outer loop
    vertex 23.999999999999986 6.0 1.9999999999999998
    vertex 21.999999999999986 25.999999999999996 1.9999999999999998
    vertex 21.999999999999986 6.0 1.9999999999999998
  endloop
endfacet
facet normal 8.745326989103591e-33 -1.445914317465461e-32 1.0
  outer loop
    vertex 21.999999999999986 25.999999999999996 1.9999999999999998
    vertex 23.999999999999986 6.0 1.9999999999999998
    vertex 23.999999999999986 25.999999999999996 1.9999999999999998
  endloop
endfacet
facet normal 8.745326989103591e-33 -1.445914317465461e-32 1.0
  outer loop
    vertex 18.999999999999986 6.0 1.9999999999999998
    vertex 16.999999999999986 25.999999999999996 1.9999999999999998
    vertex 16.999999999999986 6.0 1.9999999999999998
  endloop
endfacet
facet normal 8.745326989103591e-33 -1.445914317465461e-32 1.0
  outer loop
    vertex 16.999999999999986 25.999999999999996 1.9999999999999998
    vertex 18.999999999999986 6.0 1.9999999999999998
    vertex 18.999999999999982 25.999999999999996 1.9999999999999998
  endloop
endfacet
facet normal 8.745326989103591e-33 -1.445914317465461e-32 1.0
  outer loop
    vertex 18.999999999999982 25.999999999999996 1.9999999999999998
    vertex 18.999999999999986 6.0 1.9999999999999998
    vertex 18.999999999999982 28.999999999999996 1.9999999999999998
  endloop
endfacet
facet normal 8.745326989103591e-33 -1.445914317465461e-32 1.0
  outer loop
    vertex 18.999999999999982 28.999999999999996 1.9999999999999998
    vertex 18.999999999999986 6.0 1.9999999999999998
    vertex 21.999999999999986 28.999999999999996 1.9999999999999998
  endloop
endfacet
facet normal 8.745326989103591e-33 -1.445914317465461e-32 1.0
  outer loop
    vertex 21.999999999999986 28.999999999999996 1.9999999999999998
    vertex 18.999999999999986 6.0 1.9999999999999998
    vertex 21.999999999999986 3.0 1.9999999999999998
  endloop
endfacet
facet normal 8.745326989103591e-33 -1.445914317465461e-32 1.0
  outer loop
    vertex 21.999999999999986 28.999999999999996 1.9999999999999998
    vertex 21.999999999999986 3.0 1.9999999999999998
    vertex 21.999999999999986 6.0 1.9999999999999998
  endloop
endfacet
facet normal 8.745326989103591e-33 -1.445914317465461e-32 1.0
  outer loop
    vertex 21.999999999999986 28.999999999999996 1.9999999999999998
    vertex 21.999999999999986 6.0 1.9999999999999998
    vertex 21.999999999999986 25.999999999999996 1.9999999999999998
  endloop
endfacet
facet normal 8.745326989103591e-33 -1.445914317465461e-32 1.0
  outer loop
    vertex 16.999999999999986 3.0 1.9999999999999998
    vertex 13.999999999999986 6.0 1.9999999999999998
    vertex 13.999999999999986 3.0 1.9999999999999998
  endloop
endfacet
facet normal 8.745326989103591e-33 -1.445914317465461e-32 1.0
  outer loop
    vertex 13.999999999999986 6.0 1.9999999999999998
    vertex 16.999999999999986 3.0 1.9999999999999998
    vertex 13.999999999999986 25.999999999999996 1.9999999999999998
  endloop
endfacet
facet normal 8.745326989103591e-33 -1.445914317465461e-32 1.0
  outer loop
    vertex 13.999999999999986 25.999999999999996 1.9999999999999998
    vertex 16.999999999999986 3.0 1.9999999999999998
    vertex 13.999999999999986 28.999999999999996 1.9999999999999998
  endloop
endfacet
facet normal 8.745326989103591e-33 -1.445914317465461e-32 1.0
  outer loop
    vertex 13.999999999999986 28.999999999999996 1.9999999999999998
    vertex 16.999999999999986 3.0 1.9999999999999998
    vertex 16.999999999999986 28.999999999999996 1.9999999999999998
  endloop
endfacet
facet normal 8.745326989103591e-33 -1.445914317465461e-32 1.0
  outer loop
    vertex 16.999999999999986 28.999999999999996 1.9999999999999998
    vertex 16.999999999999986 3.0 1.9999999999999998
    vertex 16.999999999999986 6.0 1.9999999999999998
  endloop
endfacet
facet normal 8.745326989103591e-33 -1.445914317465461e-32 1.0
  outer loop
    vertex 16.999999999999986 28.999999999999996 1.9999999999999998
    vertex 16.999999999999986 6.0 1.9999999999999998
    vertex 16.999999999999986 25.999999999999996 1.9999999999999998
  endloop
endfacet
facet normal 8.745326989103591e-33 -1.445914317465461e-32 1.0
  outer loop
    vertex 11.999999999999988 3.0 1.9999999999999998
    vertex 8.999999999999986 6.0 1.9999999999999998
    vertex 8.999999999999986 3.0 1.9999999999999998
  endloop
endfacet
facet normal 8.745326989103591e-33 -1.445914317465461e-32 1.0
  outer loop
    vertex 8.999999999999986 6.0 1.9999999999999998
    vertex 11.999999999999988 3.0 1.9999999999999998
    vertex 8.999999999999988 25.999999999999996 1.9999999999999998
  endloop
endfacet
facet normal 8.745326989103591e-33 -1.445914317465461e-32 1.0
  outer loop
    vertex 8.999999999999988 25.999999999999996 1.9999999999999998
    vertex 11.999999999999988 3.0 1.9999999999999998
    vertex 8.999999999999988 28.999999999999996 1.9999999999999998
  endloop
endfacet
facet normal 8.745326989103591e-33 -1.445914317465461e-32 1.0
  outer loop
    vertex 8.999999999999988 28.999999999999996 1.9999999999999998
    vertex 11.999999999999988 3.0 1.9999999999999998
    vertex 11.999999999999986 25.999999999999996 1.9999999999999998
  endloop
endfacet
facet normal 8.745326989103591e-33 -1.445914317465461e-32 1.0
  outer loop
    vertex 11.999999999999986 25.999999999999996 1.9999999999999998
    vertex 11.999999999999988 3.0 1.9999999999999998
    vertex 11.999999999999988 6.0 1.9999999999999998
  endloop
endfacet
facet normal 8.745326989103591e-33 -1.445914317465461e-32 1.0
  outer loop
    vertex 11.999999999999986 25.999999999999996 1.9999999999999998
    vertex 11.999999999999988 6.0 1.9999999999999998
    vertex 13.999999999999986 25.999999999999996 1.9999999999999998
  endloop
endfacet
facet normal 8.745326989103591e-33 -1.445914317465461e-32 1.0
  outer loop
    vertex 13.999999999999986 25.999999999999996 1.9999999999999998
    vertex 11.999999999999988 6.0 1.9999999999999998
    vertex 13.999999999999986 6.0 1.9999999999999998
  endloop
endfacet
facet normal 8.745326989103591e-33 -1.445914317465461e-32 1.0
  outer loop
    vertex 63.0 3.0 1.9999999999999998
    vertex 58.99999999999999 6.0 1.9999999999999998
    vertex 58.99999999999999 3.0 1.9999999999999998
  endloop
endfacet
facet normal 8.745326989103591e-33 -1.445914317465461e-32 1.0
  outer loop
    vertex 58.99999999999999 6.0 1.9999999999999998
    vertex 63.0 3.0 1.9999999999999998
    vertex 58.99999999999999 25.999999999999996 1.9999999999999998
  endloop
endfacet
facet normal 8.745326989103591e-33 -1.445914317465461e-32 1.0
  outer loop
    vertex 58.99999999999999 25.999999999999996 1.9999999999999998
    vertex 63.0 3.0 1.9999999999999998
    vertex 58.99999999999999 28.999999999999996 1.9999999999999998
  endloop
endfacet
facet normal 8.745326989103591e-33 -1.445914317465461e-32 1.0
  outer loop
    vertex 58.99999999999999 28.999999999999996 1.9999999999999998
    vertex 63.0 3.0 1.9999999999999998
    vertex 63.0 28.999999999999996 1.9999999999999998
  endloop
endfacet
facet normal 8.745326989103591e-33 -1.445914317465461e-32 1.0
  outer loop
    vertex 57.0 3.0 1.9999999999999998
    vertex 53.99999999999999 6.0 1.9999999999999998
    vertex 53.99999999999999 3.0 1.9999999999999998
  endloop
endfacet
facet normal 8.745326989103591e-33 -1.445914317465461e-32 1.0
  outer loop
    vertex 53.99999999999999 6.0 1.9999999999999998
    vertex 57.0 3.0 1.9999999999999998
    vertex 53.99999999999999 25.999999999999996 1.9999999999999998
  endloop
endfacet
facet normal 8.745326989103591e-33 -1.445914317465461e-32 1.0
  outer loop
    vertex 53.99999999999999 25.999999999999996 1.9999999999999998
    vertex 57.0 3.0 1.9999999999999998
    vertex 53.99999999999999 28.999999999999996 1.9999999999999998
  endloop
endfacet
facet normal 8.745326989103591e-33 -1.445914317465461e-32 1.0
  outer loop
    vertex 53.99999999999999 28.999999999999996 1.9999999999999998
    vertex 57.0 3.0 1.9999999999999998
    vertex 56.999999999999986 25.999999999999996 1.9999999999999998
  endloop
endfacet
facet normal 8.745326989103591e-33 -1.445914317465461e-32 1.0
  outer loop
    vertex 56.999999999999986 25.999999999999996 1.9999999999999998
    vertex 57.0 3.0 1.9999999999999998
    vertex 57.0 6.0 1.9999999999999998
  endloop
endfacet
facet normal 8.745326989103591e-33 -1.445914317465461e-32 1.0
  outer loop
    vertex 56.999999999999986 25.999999999999996 1.9999999999999998
    vertex 57.0 6.0 1.9999999999999998
    vertex 58.99999999999999 25.999999999999996 1.9999999999999998
  endloop
endfacet
facet normal 8.745326989103591e-33 -1.445914317465461e-32 1.0
  outer loop
    vertex 58.99999999999999 25.999999999999996 1.9999999999999998
    vertex 57.0 6.0 1.9999999999999998
    vertex 58.99999999999999 6.0 1.9999999999999998
  endloop
endfacet
facet normal 8.745326989103591e-33 -1.445914317465461e-32 1.0
  outer loop
    vertex 56.999999999999986 28.999999999999996 1.9999999999999998
    vertex 53.99999999999999 28.999999999999996 1.9999999999999998
    vertex 56.999999999999986 25.999999999999996 1.9999999999999998
  endloop
endfacet
facet normal 8.745326989103591e-33 -1.445914317465461e-32 1.0
  outer loop
    vertex 11.999999999999986 28.999999999999996 1.9999999999999998
    vertex 8.999999999999988 28.999999999999996 1.9999999999999998
    vertex 11.999999999999986 25.999999999999996 1.9999999999999998
  endloop
endfacet
facet normal -0.0 -0.0 1.0
  outer loop
    vertex 8.999999999999988 25.999999999999996 17.0
    vertex 6.999999999999988 28.999999999999996 17.0
    vertex 6.999999999999988 25.999999999999996 17.0
  endloop
endfacet
facet normal -0.0 -0.0 1.0
  outer loop
    vertex 6.999999999999988 28.999999999999996 17.0
    vertex 8.999999999999988 25.999999999999996 17.0
    vertex 8.999999999999988 28.999999999999996 17.0
  endloop
endfacet
facet normal -1.0 0.0 0.0
  outer loop
    vertex 6.999999999999988 28.999999999999996 17.0
    vertex 6.999999999999988 25.999999999999996 1.9999999999999998
    vertex 6.999999999999988 25.999999999999996 17.0
  endloop
endfacet
facet normal -1.0 0.0 0.0
  outer loop
    vertex 6.999999999999988 25.999999999999996 1.9999999999999998
    vertex 6.999999999999988 28.999999999999996 17.0
    vertex 6.999999999999988 28.999999999999996 1.9999999999999998
  endloop
endfacet
facet normal 0.0 -1.0 0.0
  outer loop
    vertex 8.999999999999988 25.999999999999996 17.0
    vertex 6.999999999999988 25.999999999999996 1.9999999999999998
    vertex 8.999999999999988 25.999999999999996 1.9999999999999998
  endloop
endfacet
facet normal 0.0 -1.0 0.0
  outer loop
    vertex 6.999999999999988 25.999999999999996 1.9999999999999998
    vertex 8.999999999999988 25.999999999999996 17.0
    vertex 6.999999999999988 25.999999999999996 17.0
  endloop
endfacet
facet normal 1.0 -0.0 -0.0
  outer loop
    vertex 8.999999999999988 28.999999999999996 1.9999999999999998
    vertex 8.999999999999988 25.999999999999996 17.0
    vertex 8.999999999999988 25.999999999999996 1.9999999999999998
  endloop
endfacet
facet normal 1.0 -0.0 -0.0
  outer loop
    vertex 8.999999999999988 25.999999999999996 17.0
    vertex 8.999999999999988 28.999999999999996 1.9999999999999998
    vertex 8.999999999999988 28.999999999999996 17.0
  endloop
endfacet
facet normal -0.0 -0.0 1.0
  outer loop
    vertex 13.999999999999986 25.999999999999996 17.0
    vertex 11.999999999999986 28.999999999999996 17.0
    vertex 11.999999999999986 25.999999999999996 17.0
  endloop
endfacet
facet normal -0.0 -0.0 1.0
  outer loop
    vertex 11.999999999999986 28.999999999999996 17.0
    vertex 13.999999999999986 25.999999999999996 17.0
    vertex 13.999999999999986 28.999999999999996 17.0
  endloop
endfacet
facet normal -1.0 0.0 0.0
  outer loop
    vertex 11.999999999999986 28.999999999999996 17.0
    vertex 11.999999999999986 25.999999999999996 1.9999999999999998
    vertex 11.999999999999986 25.999999999999996 17.0
  endloop
endfacet
facet normal -1.0 0.0 0.0
  outer loop
    vertex 11.999999999999986 25.999999999999996 1.9999999999999998
    vertex 11.999999999999986 28.999999999999996 17.0
    vertex 11.999999999999986 28.999999999999996 1.9999999999999998
  endloop
endfacet
facet normal 0.0 -1.0 0.0
  outer loop
    vertex 13.999999999999986 25.999999999999996 17.0
    vertex 11.999999999999986 25.999999999999996 1.9999999999999998
    vertex 13.999999999999986 25.999999999999996 1.9999999999999998
  endloop
endfacet
facet normal 0.0 -1.0 0.0
  outer loop
    vertex 11.999999999999986 25.999999999999996 1.9999999999999998
    vertex 13.999999999999986 25.999999999999996 17.0
    vertex 11.999999999999986 25.999999999999996 17.0
  endloop
endfacet
facet normal 1.0 -0.0 -0.0
  outer loop
    vertex 13.999999999999986 28.999999999999996 1.9999999999999998
    vertex 13.999999999999986 25.999999999999996 17.0
    vertex 13.999999999999986 25.999999999999996 1.9999999999999998
  endloop
endfacet
facet normal 1.0 -0.0 -0.0
  outer loop
    vertex 13.999999999999986 25.999999999999996 17.0
    vertex 13.999999999999986 28.999999999999996 1.9999999999999998
    vertex 13.999999999999986 28.999999999999996 17.0
  endloop
endfacet
facet normal -0.0 -0.0 1.0
  outer loop
    vertex 18.999999999999982 25.999999999999996 17.0
    vertex 16.999999999999986 28.999999999999996 17.0
    vertex 16.999999999999986 25.999999999999996 17.0
  endloop
endfacet
facet normal -0.0 -0.0 1.0
  outer loop
    vertex 16.999999999999986 28.999999999999996 17.0
    vertex 18.999999999999982 25.999999999999996 17.0
    vertex 18.999999999999982 28.999999999999996 17.0
  endloop
endfacet
facet normal -1.0 0.0 0.0
  outer loop
    vertex 16.999999999999986 28.999999999999996 17.0
    vertex 16.999999999999986 25.999999999999996 1.9999999999999998
    vertex 16.999999999999986 25.999999999999996 17.0
  endloop
endfacet
facet normal -1.0 0.0 0.0
  outer loop
    vertex 16.999999999999986 25.999999999999996 1.9999999999999998
    vertex 16.999999999999986 28.999999999999996 17.0
    vertex 16.999999999999986 28.999999999999996 1.9999999999999998
  endloop
endfacet
facet normal 0.0 -1.0 0.0
  outer loop
    vertex 18.999999999999982 25.999999999999996 17.0
    vertex 16.999999999999986 25.999999999999996 1.9999999999999998
    vertex 18.999999999999982 25.999999999999996 1.9999999999999998
  endloop
endfacet
facet normal 0.0 -1.0 0.0
  outer loop
    vertex 16.999999999999986 25.999999999999996 1.9999999999999998
    vertex 18.999999999999982 25.999999999999996 17.0
    vertex 16.999999999999986 25.999999999999996 17.0
  endloop
endfacet
facet normal 1.0 -0.0 -0.0
  outer loop
    vertex 18.999999999999982 28.999999999999996 1.9999999999999998
    vertex 18.999999999999982 25.999999999999996 17.0
    vertex 18.999999999999982 25.999999999999996 1.9999999999999998
  endloop
endfacet
facet normal 1.0 -0.0 -0.0
  outer loop
    vertex 18.999999999999982 25.999999999999996 17.0
    vertex 18.999999999999982 28.999999999999996 1.9999999999999998
    vertex 18.999999999999982 28.999999999999996 17.0
  endloop
endfacet
facet normal -0.0 -0.0 1.0
  outer loop
    vertex 23.999999999999986 25.999999999999996 17.0
    vertex 21.999999999999986 28.999999999999996 17.0
    vertex 21.999999999999986 25.999999999999996 17.0
  endloop
endfacet
facet normal -0.0 -0.0 1.0
  outer loop
    vertex 21.999999999999986 28.999999999999996 17.0
    vertex 23.999999999999986 25.999999999999996 17.0
    vertex 23.999999999999986 28.999999999999996 17.0
  endloop
endfacet
facet normal -1.0 0.0 0.0
  outer loop
    vertex 21.999999999999986 28.999999999999996 17.0
    vertex 21.999999999999986 25.999999999999996 1.9999999999999998
    vertex 21.999999999999986 25.999999999999996 17.0
  endloop
endfacet
facet normal -1.0 0.0 0.0
  outer loop
    vertex 21.999999999999986 25.999999999999996 1.9999999999999998
    vertex 21.999999999999986 28.999999999999996 17.0
    vertex 21.999999999999986 28.999999999999996 1.9999999999999998
  endloop
endfacet
facet normal 0.0 -1.0 0.0
  outer loop
    vertex 23.999999999999986 25.999999999999996 17.0
    vertex 21.999999999999986 25.999999999999996 1.9999999999999998
    vertex 23.999999999999986 25.999999999999996 1.9999999999999998
  endloop
endfacet
facet normal 0.0 -1.0 0.0
  outer loop
    vertex 21.999999999999986 25.999999999999996 1.9999999999999998
    vertex 23.999999999999986 25.999999999999996 17.0
    vertex 21.999999999999986 25.999999999999996 17.0
  endloop
endfacet
facet normal 1.0 -0.0 -0.0
  outer loop
    vertex 23.999999999999986 28.999999999999996 1.9999999999999998
    vertex 23.999999999999986 25.999999999999996 17.0
    vertex 23.999999999999986 25.999999999999996 1.9999999999999998
  endloop
endfacet
facet normal 1.0 -0.0 -0.0
  outer loop
    vertex 23.999999999999986 25.999999999999996 17.0
    vertex 23.999999999999986 28.999999999999996 1.9999999999999998
    vertex 23.999999999999986 28.999999999999996 17.0
  endloop
endfacet
facet normal -0.0 -0.0 1.0
  outer loop
    vertex 28.999999999999986 25.999999999999996 17.0
    vertex 26.999999999999986 28.999999999999996 17.0
    vertex 26.999999999999986 25.999999999999996 17.0
  endloop
endfacet
facet normal -0.0 -0.0 1.0
  outer loop
    vertex 26.999999999999986 28.999999999999996 17.0
    vertex 28.999999999999986 25.999999999999996 17.0
    vertex 28.999999999999986 28.999999999999996 17.0
  endloop
endfacet
facet normal -1.0 0.0 0.0
  outer loop
    vertex 26.999999999999986 28.999999999999996 17.0
    vertex 26.999999999999986 25.999999999999996 1.9999999999999998
    vertex 26.999999999999986 25.999999999999996 17.0
  endloop
endfacet
facet normal -1.0 0.0 0.0
  outer loop
    vertex 26.999999999999986 25.999999999999996 1.9999999999999998
    vertex 26.999999999999986 28.999999999999996 17.0
    vertex 26.999999999999986 28.999999999999996 1.9999999999999998
  endloop
endfacet
facet normal 0.0 -1.0 0.0
  outer loop
    vertex 28.999999999999986 25.999999999999996 17.0
    vertex 26.999999999999986 25.999999999999996 1.9999999999999998
    vertex 28.999999999999986 25.999999999999996 1.9999999999999998
  endloop
endfacet
facet normal 0.0 -1.0 0.0
  outer loop
    vertex 26.999999999999986 25.999999999999996 1.9999999999999998
    vertex 28.999999999999986 25.999999999999996 17.0
    vertex 26.999999999999986 25.999999999999996 17.0
  endloop
endfacet
facet normal 1.0 -0.0 -0.0
  outer loop
    vertex 28.999999999999986 28.999999999999996 1.9999999999999998
    vertex 28.999999999999986 25.999999999999996 17.0
    vertex 28.999999999999986 25.999999999999996 1.9999999999999998
  endloop
endfacet
facet normal 1.0 -0.0 -0.0
  outer loop
    vertex 28.999999999999986 25.999999999999996 17.0
    vertex 28.999999999999986 28.999999999999996 1.9999999999999998
    vertex 28.999999999999986 28.999999999999996 17.0
  endloop
endfacet
facet normal -0.0 -0.0 1.0
  outer loop
    vertex 33.999999999999986 25.999999999999996 17.0
    vertex 31.999999999999986 28.999999999999996 17.0
    vertex 31.999999999999986 25.999999999999996 17.0
  endloop
endfacet
facet normal -0.0 -0.0 1.0
  outer loop
    vertex 31.999999999999986 28.999999999999996 17.0
    vertex 33.999999999999986 25.999999999999996 17.0
    vertex 33.999999999999986 28.999999999999996 17.0
  endloop
endfacet
facet normal -1.0 0.0 0.0
  outer loop
    vertex 31.999999999999986 28.999999999999996 17.0
    vertex 31.999999999999986 25.999999999999996 1.9999999999999998
    vertex 31.999999999999986 25.999999999999996 17.0
  endloop
endfacet
facet normal -1.0 0.0 0.0
  outer loop
    vertex 31.999999999999986 25.999999999999996 1.9999999999999998
    vertex 31.999999999999986 28.999999999999996 17.0
    vertex 31.999999999999986 28.999999999999996 1.9999999999999998
  endloop
endfacet
facet normal 0.0 -1.0 0.0
  outer loop
    vertex 33.999999999999986 25.999999999999996 17.0
    vertex 31.999999999999986 25.999999999999996 1.9999999999999998
    vertex 33.999999999999986 25.999999999999996 1.9999999999999998
  endloop
endfacet
facet normal 0.0 -1.0 0.0
  outer loop
    vertex 31.999999999999986 25.999999999999996 1.9999999999999998
    vertex 33.999999999999986 25.999999999999996 17.0
    vertex 31.999999999999986 25.999999999999996 17.0
  endloop
endfacet
facet normal 1.0 -0.0 -0.0
  outer loop
    vertex 33.999999999999986 28.999999999999996 1.9999999999999998
    vertex 33.999999999999986 25.999999999999996 17.0
    vertex 33.999999999999986 25.999999999999996 1.9999999999999998
  endloop
endfacet
facet normal 1.0 -0.0 -0.0
  outer loop
    vertex 33.999999999999986 25.999999999999996 17.0
    vertex 33.999999999999986 28.999999999999996 1.9999999999999998
    vertex 33.999999999999986 28.999999999999996 17.0
  endloop
endfacet
facet normal -0.0 -0.0 1.0
  outer loop
    vertex 38.99999999999999 25.999999999999996 17.0
    vertex 36.999999999999986 28.999999999999996 17.0
    vertex 36.999999999999986 25.999999999999996 17.0
  endloop
endfacet
facet normal -0.0 -0.0 1.0
  outer loop
    vertex 36.999999999999986 28.999999999999996 17.0
    vertex 38.99999999999999 25.999999999999996 17.0
    vertex 38.99999999999999 28.999999999999996 17.0
  endloop
endfacet
facet normal -1.0 0.0 0.0
  outer loop
    vertex 36.999999999999986 28.999999999999996 17.0
    vertex 36.999999999999986 25.999999999999996 1.9999999999999998
    vertex 36.999999999999986 25.999999999999996 17.0
  endloop
endfacet
facet normal -1.0 0.0 0.0
  outer loop
    vertex 36.999999999999986 25.999999999999996 1.9999999999999998
    vertex 36.999999999999986 28.999999999999996 17.0
    vertex 36.999999999999986 28.999999999999996 1.9999999999999998
  endloop
endfacet
facet normal 0.0 -1.0 0.0
  outer loop
    vertex 38.99999999999999 25.999999999999996 17.0
    vertex 36.999999999999986 25.999999999999996 1.9999999999999998
    vertex 38.99999999999999 25.999999999999996 1.9999999999999998
  endloop
endfacet
facet normal 0.0 -1.0 0.0
  outer loop
    vertex 36.999999999999986 25.999999999999996 1.9999999999999998
    vertex 38.99999999999999 25.999999999999996 17.0
    vertex 36.999999999999986 25.999999999999996 17.0
  endloop
endfacet
facet normal 1.0 -0.0 -0.0
  outer loop
    vertex 38.99999999999999 28.999999999999996 1.9999999999999998
    vertex 38.99999999999999 25.999999999999996 17.0
    vertex 38.99999999999999 25.999999999999996 1.9999999999999998
  endloop
endfacet
facet normal 1.0 -0.0 -0.0
  outer loop
    vertex 38.99999999999999 25.999999999999996 17.0
    vertex 38.99999999999999 28.999999999999996 1.9999999999999998
    vertex 38.99999999999999 28.999999999999996 17.0
  endloop
endfacet
facet normal -0.0 -0.0 1.0
  outer loop
    vertex 43.99999999999999 25.999999999999996 17.0
    vertex 41.99999999999999 28.999999999999996 17.0
    vertex 41.99999999999999 25.999999999999996 17.0
  endloop
endfacet
facet normal -0.0 -0.0 1.0
  outer loop
    vertex 41.99999999999999 28.999999999999996 17.0
    vertex 43.99999999999999 25.999999999999996 17.0
    vertex 43.99999999999999 28.999999999999996 17.0
  endloop
endfacet
facet normal -1.0 0.0 0.0
  outer loop
    vertex 41.99999999999999 28.999999999999996 17.0
    vertex 41.99999999999999 25.999999999999996 1.9999999999999998
    vertex 41.99999999999999 25.999999999999996 17.0
  endloop
endfacet
facet normal -1.0 0.0 0.0
  outer loop
    vertex 41.99999999999999 25.999999999999996 1.9999999999999998
    vertex 41.99999999999999 28.999999999999996 17.0
    vertex 41.99999999999999 28.999999999999996 1.9999999999999998
  endloop
endfacet
facet normal 0.0 -1.0 0.0
  outer loop
    vertex 43.99999999999999 25.999999999999996 17.0
    vertex 41.99999999999999 25.999999999999996 1.9999999999999998
    vertex 43.99999999999999 25.999999999999996 1.9999999999999998
  endloop
endfacet
facet normal 0.0 -1.0 0.0
  outer loop
    vertex 41.99999999999999 25.999999999999996 1.9999999999999998
    vertex 43.99999999999999 25.999999999999996 17.0
    vertex 41.99999999999999 25.999999999999996 17.0
  endloop
endfacet
facet normal 1.0 -0.0 -0.0
  outer loop
    vertex 43.99999999999999 28.999999999999996 1.9999999999999998
    vertex 43.99999999999999 25.999999999999996 17.0
    vertex 43.99999999999999 25.999999999999996 1.9999999999999998
  endloop
endfacet
facet normal 1.0 -0.0 -0.0
  outer loop
    vertex 43.99999999999999 25.999999999999996 17.0
    vertex 43.99999999999999 28.999999999999996 1.9999999999999998
    vertex 43.99999999999999 28.999999999999996 17.0
  endloop
endfacet
facet normal -0.0 -0.0 1.0
  outer loop
    vertex 48.99999999999999 25.999999999999996 17.0
    vertex 46.99999999999999 28.999999999999996 17.0
    vertex 46.99999999999999 25.999999999999996 17.0
  endloop
endfacet
facet normal -0.0 -0.0 1.0
  outer loop
    vertex 46.99999999999999 28.999999999999996 17.0
    vertex 48.99999999999999 25.999999999999996 17.0
    vertex 48.99999999999999 28.999999999999996 17.0
  endloop
endfacet
facet normal -1.0 0.0 0.0
  outer loop
    vertex 46.99999999999999 28.999999999999996 17.0
    vertex 46.99999999999999 25.999999999999996 1.9999999999999998
    vertex 46.99999999999999 25.999999999999996 17.0
  endloop
endfacet
facet normal -1.0 0.0 0.0
  outer loop
    vertex 46.99999999999999 25.999999999999996 1.9999999999999998
    vertex 46.99999999999999 28.999999999999996 17.0
    vertex 46.99999999999999 28.999999999999996 1.9999999999999998
  endloop
endfacet
facet normal 0.0 -1.0 0.0
  outer loop
    vertex 48.99999999999999 25.999999999999996 17.0
    vertex 46.99999999999999 25.999999999999996 1.9999999999999998
    vertex 48.99999999999999 25.999999999999996 1.9999999999999998
  endloop
endfacet
facet normal 0.0 -1.0 0.0
  outer loop
    vertex 46.99999999999999 25.999999999999996 1.9999999999999998
    vertex 48.99999999999999 25.999999999999996 17.0
    vertex 46.99999999999999 25.999999999999996 17.0
  endloop
endfacet
facet normal 1.0 -0.0 -0.0
  outer loop
    vertex 48.99999999999999 28.999999999999996 1.9999999999999998
    vertex 48.99999999999999 25.999999999999996 17.0
    vertex 48.99999999999999 25.999999999999996 1.9999999999999998
  endloop
endfacet
facet normal 1.0 -0.0 -0.0
  outer loop
    vertex 48.99999999999999 25.999999999999996 17.0
    vertex 48.99999999999999 28.999999999999996 1.9999999999999998
    vertex 48.99999999999999 28.999999999999996 17.0
  endloop
endfacet
facet normal -0.0 -0.0 1.0
  outer loop
    vertex 53.99999999999999 25.999999999999996 17.0
    vertex 51.99999999999999 28.999999999999996 17.0
    vertex 51.99999999999999 25.999999999999996 17.0
  endloop
endfacet
facet normal -0.0 -0.0 1.0
  outer loop
    vertex 51.99999999999999 28.999999999999996 17.0
    vertex 53.99999999999999 25.999999999999996 17.0
    vertex 53.99999999999999 28.999999999999996 17.0
  endloop
endfacet
facet normal -1.0 0.0 0.0
  outer loop
    vertex 51.99999999999999 28.999999999999996 17.0
    vertex 51.99999999999999 25.999999999999996 1.9999999999999998
    vertex 51.99999999999999 25.999999999999996 17.0
  endloop
endfacet
facet normal -1.0 0.0 0.0
  outer loop
    vertex 51.99999999999999 25.999999999999996 1.9999999999999998
    vertex 51.99999999999999 28.999999999999996 17.0
    vertex 51.99999999999999 28.999999999999996 1.9999999999999998
  endloop
endfacet
facet normal 0.0 -1.0 0.0
  outer loop
    vertex 53.99999999999999 25.999999999999996 17.0
    vertex 51.99999999999999 25.999999999999996 1.9999999999999998
    vertex 53.99999999999999 25.999999999999996 1.9999999999999998
  endloop
endfacet
facet normal 0.0 -1.0 0.0
  outer loop
    vertex 51.99999999999999 25.999999999999996 1.9999999999999998
    vertex 53.99999999999999 25.999999999999996 17.0
    vertex 51.99999999999999 25.999999999999996 17.0
  endloop
endfacet
facet normal 1.0 -0.0 -0.0
  outer loop
    vertex 53.99999999999999 28.999999999999996 1.9999999999999998
    vertex 53.99999999999999 25.999999999999996 17.0
    vertex 53.99999999999999 25.999999999999996 1.9999999999999998
  endloop
endfacet
facet normal 1.0 -0.0 -0.0
  outer loop
    vertex 53.99999999999999 25.999999999999996 17.0
    vertex 53.99999999999999 28.999999999999996 1.9999999999999998
    vertex 53.99999999999999 28.999999999999996 17.0
  endloop
endfacet
facet normal -0.0 -0.0 1.0
  outer loop
    vertex 58.99999999999999 25.999999999999996 16.999999999999993
    vertex 56.999999999999986 28.999999999999996 16.999999999999993
    vertex 56.999999999999986 25.999999999999996 16.999999999999993
  endloop
endfacet
facet normal -0.0 -0.0 1.0
  outer loop
    vertex 56.999999999999986 28.999999999999996 16.999999999999993
    vertex 58.99999999999999 25.999999999999996 16.999999999999993
    vertex 58.99999999999999 28.999999999999996 16.999999999999993
  endloop
endfacet
facet normal -1.0 0.0 0.0
  outer loop
    vertex 56.999999999999986 28.999999999999996 16.999999999999993
    vertex 56.999999999999986 25.999999999999996 1.9999999999999998
    vertex 56.999999999999986 25.999999999999996 16.999999999999993
  endloop
endfacet
facet normal -1.0 0.0 0.0
  outer loop
    vertex 56.999999999999986 25.999999999999996 1.9999999999999998
    vertex 56.999999999999986 28.999999999999996 16.999999999999993
    vertex 56.999999999999986 28.999999999999996 1.9999999999999998
  endloop
endfacet
facet normal 0.0 -1.0 0.0
  outer loop
    vertex 58.99999999999999 25.999999999999996 16.999999999999993
    vertex 56.999999999999986 25.999999999999996 1.9999999999999998
    vertex 58.99999999999999 25.999999999999996 1.9999999999999998
  endloop
endfacet
facet normal 0.0 -1.0 0.0
  outer loop
    vertex 56.999999999999986 25.999999999999996 1.9999999999999998
    vertex 58.99999999999999 25.999999999999996 16.999999999999993
    vertex 56.999999999999986 25.999999999999996 16.999999999999993
  endloop
endfacet
facet normal 1.0 -0.0 -0.0
  outer loop
    vertex 58.99999999999999 28.999999999999996 1.9999999999999998
    vertex 58.99999999999999 25.999999999999996 16.999999999999993
    vertex 58.99999999999999 25.999999999999996 1.9999999999999998
  endloop
endfacet
facet normal 1.0 -0.0 -0.0
  outer loop
    vertex 58.99999999999999 25.999999999999996 16.999999999999993
    vertex 58.99999999999999 28.999999999999996 1.9999999999999998
    vertex 58.99999999999999 28.999999999999996 16.999999999999993
  endloop
endfacet
facet normal -0.0 -0.0 1.0
  outer loop
    vertex 8.999999999999986 3.0 17.000000000000007
    vertex 6.999999999999988 6.0 17.000000000000007
    vertex 6.999999999999988 3.0 17.000000000000007
  endloop
endfacet
facet normal -0.0 -0.0 1.0
  outer loop
    vertex 6.999999999999988 6.0 17.000000000000007
    vertex 8.999999999999986 3.0 17.000000000000007
    vertex 8.999999999999986 6.0 17.000000000000007
  endloop
endfacet
facet normal 1.0 -0.0 -0.0
  outer loop
    vertex 8.999999999999986 6.0 1.9999999999999998
    vertex 8.999999999999986 3.0 17.000000000000007
    vertex 8.999999999999986 3.0 1.9999999999999998
  endloop
endfacet
facet normal 1.0 -0.0 -0.0
  outer loop
    vertex 8.999999999999986 3.0 17.000000000000007
    vertex 8.999999999999986 6.0 1.9999999999999998
    vertex 8.999999999999986 6.0 17.000000000000007
  endloop
endfacet
facet normal 0.0 1.0 0.0
  outer loop
    vertex 6.999999999999988 6.0 17.000000000000007
    vertex 8.999999999999986 6.0 1.9999999999999998
    vertex 6.999999999999988 6.0 1.9999999999999998
  endloop
endfacet
facet normal 0.0 1.0 0.0
  outer loop
    vertex 8.999999999999986 6.0 1.9999999999999998
    vertex 6.999999999999988 6.0 17.000000000000007
    vertex 8.999999999999986 6.0 17.000000000000007
  endloop
endfacet
facet normal -1.0 0.0 0.0
  outer loop
    vertex 6.999999999999988 6.0 17.000000000000007
    vertex 6.999999999999988 3.0 1.9999999999999998
    vertex 6.999999999999988 3.0 17.000000000000007
  endloop
endfacet
facet normal -1.0 0.0 0.0
  outer loop
    vertex 6.999999999999988 3.0 1.9999999999999998
    vertex 6.999999999999988 6.0 17.000000000000007
    vertex 6.999999999999988 6.0 1.9999999999999998
  endloop
endfacet
facet normal -0.0 -0.0 1.0
  outer loop
    vertex 13.999999999999986 3.0 17.00000000000001
    vertex 11.999999999999988 6.0 17.00000000000001
    vertex 11.999999999999988 3.0 17.00000000000001
  endloop
endfacet
facet normal -0.0 -0.0 1.0
  outer loop
    vertex 11.999999999999988 6.0 17.00000000000001
    vertex 13.999999999999986 3.0 17.00000000000001
    vertex 13.999999999999986 6.0 17.00000000000001
  endloop
endfacet
facet normal 1.0 -0.0 -0.0
  outer loop
    vertex 13.999999999999986 6.0 1.9999999999999998
    vertex 13.999999999999986 3.0 17.00000000000001
    vertex 13.999999999999986 3.0 1.9999999999999998
  endloop
endfacet
facet normal 1.0 -0.0 -0.0
  outer loop
    vertex 13.999999999999986 3.0 17.00000000000001
    vertex 13.999999999999986 6.0 1.9999999999999998
    vertex 13.999999999999986 6.0 17.00000000000001
  endloop
endfacet
facet normal 0.0 1.0 0.0
  outer loop
    vertex 11.999999999999988 6.0 17.00000000000001
    vertex 13.999999999999986 6.0 1.9999999999999998
    vertex 11.999999999999988 6.0 1.9999999999999998
  endloop
endfacet
facet normal 0.0 1.0 0.0
  outer loop
    vertex 13.999999999999986 6.0 1.9999999999999998
    vertex 11.999999999999988 6.0 17.00000000000001
    vertex 13.999999999999986 6.0 17.00000000000001
  endloop
endfacet
facet normal -1.0 0.0 0.0
  outer loop
    vertex 11.999999999999988 6.0 17.00000000000001
    vertex 11.999999999999988 3.0 1.9999999999999998
    vertex 11.999999999999988 3.0 17.00000000000001
  endloop
endfacet
facet normal -1.0 0.0 0.0
  outer loop
    vertex 11.999999999999988 3.0 1.9999999999999998
    vertex 11.999999999999988 6.0 17.00000000000001
    vertex 11.999999999999988 6.0 1.9999999999999998
  endloop
endfacet
facet normal -0.0 -0.0 1.0
  outer loop
    vertex 18.999999999999986 3.0 17.000000000000014
    vertex 16.999999999999986 6.0 17.000000000000014
    vertex 16.999999999999986 3.0 17.000000000000014
  endloop
endfacet
facet normal -0.0 -0.0 1.0
  outer loop
    vertex 16.999999999999986 6.0 17.000000000000014
    vertex 18.999999999999986 3.0 17.000000000000014
    vertex 18.999999999999986 6.0 17.000000000000014
  endloop
endfacet
facet normal 1.0 -0.0 -0.0
  outer loop
    vertex 18.999999999999986 6.0 1.9999999999999998
    vertex 18.999999999999986 3.0 17.000000000000014
    vertex 18.999999999999986 3.0 1.9999999999999998
  endloop
endfacet
facet normal 1.0 -0.0 -0.0
  outer loop
    vertex 18.999999999999986 3.0 17.000000000000014
    vertex 18.999999999999986 6.0 1.9999999999999998
    vertex 18.999999999999986 6.0 17.000000000000014
  endloop
endfacet
facet normal 0.0 1.0 0.0
  outer loop
    vertex 16.999999999999986 6.0 17.000000000000014
    vertex 18.999999999999986 6.0 1.9999999999999998
    vertex 16.999999999999986 6.0 1.9999999999999998
  endloop
endfacet
facet normal 0.0 1.0 0.0
  outer loop
    vertex 18.999999999999986 6.0 1.9999999999999998
    vertex 16.999999999999986 6.0 17.000000000000014
    vertex 18.999999999999986 6.0 17.000000000000014
  endloop
endfacet
facet normal -1.0 0.0 0.0
  outer loop
    vertex 16.999999999999986 6.0 17.000000000000014
    vertex 16.999999999999986 3.0 1.9999999999999998
    vertex 16.999999999999986 3.0 17.000000000000014
  endloop
endfacet
facet normal -1.0 0.0 0.0
  outer loop
    vertex 16.999999999999986 3.0 1.9999999999999998
    vertex 16.999999999999986 6.0 17.000000000000014
    vertex 16.999999999999986 6.0 1.9999999999999998
  endloop
endfacet
facet normal -0.0 -0.0 1.0
  outer loop
    vertex 23.999999999999986 3.0 17.00000000000002
    vertex 21.999999999999986 6.0 17.00000000000002
    vertex 21.999999999999986 3.0 17.00000000000002
  endloop
endfacet
facet normal -0.0 -0.0 1.0
  outer loop
    vertex 21.999999999999986 6.0 17.00000000000002
    vertex 23.999999999999986 3.0 17.00000000000002
    vertex 23.999999999999986 6.0 17.00000000000002
  endloop
endfacet
facet normal 1.0 -0.0 -0.0
  outer loop
    vertex 23.999999999999986 6.0 1.9999999999999998
    vertex 23.999999999999986 3.0 17.00000000000002
    vertex 23.999999999999986 3.0 1.9999999999999998
  endloop
endfacet
facet normal 1.0 -0.0 -0.0
  outer loop
    vertex 23.999999999999986 3.0 17.00000000000002
    vertex 23.999999999999986 6.0 1.9999999999999998
    vertex 23.999999999999986 6.0 17.00000000000002
  endloop
endfacet
facet normal 0.0 1.0 0.0
  outer loop
    vertex 21.999999999999986 6.0 17.00000000000002
    vertex 23.999999999999986 6.0 1.9999999999999998
    vertex 21.999999999999986 6.0 1.9999999999999998
  endloop
endfacet
facet normal 0.0 1.0 0.0
  outer loop
    vertex 23.999999999999986 6.0 1.9999999999999998
    vertex 21.999999999999986 6.0 17.00000000000002
    vertex 23.999999999999986 6.0 17.00000000000002
  endloop
endfacet
facet normal -1.0 0.0 0.0
  outer loop
    vertex 21.999999999999986 6.0 17.00000000000002
    vertex 21.999999999999986 3.0 1.9999999999999998
    vertex 21.999999999999986 3.0 17.00000000000002
  endloop
endfacet
facet normal -1.0 0.0 0.0
  outer loop
    vertex 21.999999999999986 3.0 1.9999999999999998
    vertex 21.999999999999986 6.0 17.00000000000002
    vertex 21.999999999999986 6.0 1.9999999999999998
  endloop
endfacet
facet normal -0.0 -0.0 1.0
  outer loop
    vertex 28.999999999999986 3.0 17.000000000000025
    vertex 26.999999999999986 6.0 17.000000000000025
    vertex 26.999999999999986 3.0 17.000000000000025
  endloop
endfacet
facet normal -0.0 -0.0 1.0
  outer loop
    vertex 26.999999999999986 6.0 17.000000000000025
    vertex 28.999999999999986 3.0 17.000000000000025
    vertex 28.999999999999986 6.0 17.000000000000025
  endloop
endfacet
facet normal 1.0 -0.0 -0.0
  outer loop
    vertex 28.999999999999986 6.0 1.9999999999999998
    vertex 28.999999999999986 3.0 17.000000000000025
    vertex 28.999999999999986 3.0 1.9999999999999998
  endloop
endfacet
facet normal 1.0 -0.0 -0.0
  outer loop
    vertex 28.999999999999986 3.0 17.000000000000025
    vertex 28.999999999999986 6.0 1.9999999999999998
    vertex 28.999999999999986 6.0 17.000000000000025
  endloop
endfacet
facet normal 0.0 1.0 0.0
  outer loop
    vertex 26.999999999999986 6.0 17.000000000000025
    vertex 28.999999999999986 6.0 1.9999999999999998
    vertex 26.999999999999986 6.0 1.9999999999999998
  endloop
endfacet
facet normal 0.0 1.0 0.0
  outer loop
    vertex 28.999999999999986 6.0 1.9999999999999998
    vertex 26.999999999999986 6.0 17.000000000000025
    vertex 28.999999999999986 6.0 17.000000000000025
  endloop
endfacet
facet normal -1.0 0.0 0.0
  outer loop
    vertex 26.999999999999986 6.0 17.000000000000025
    vertex 26.999999999999986 3.0 1.9999999999999998
    vertex 26.999999999999986 3.0 17.000000000000025
  endloop
endfacet
facet normal -1.0 0.0 0.0
  outer loop
    vertex 26.999999999999986 3.0 1.9999999999999998
    vertex 26.999999999999986 6.0 17.000000000000025
    vertex 26.999999999999986 6.0 1.9999999999999998
  endloop
endfacet
facet normal -0.0 -0.0 1.0
  outer loop
    vertex 33.999999999999986 3.0 17.00000000000003
    vertex 31.999999999999986 6.0 17.00000000000003
    vertex 31.999999999999986 3.0 17.00000000000003
  endloop
endfacet
facet normal -0.0 -0.0 1.0
  outer loop
    vertex 31.999999999999986 6.0 17.00000000000003
    vertex 33.999999999999986 3.0 17.00000000000003
    vertex 33.999999999999986 6.0 17.00000000000003
  endloop
endfacet
facet normal 1.0 -0.0 -0.0
  outer loop
    vertex 33.999999999999986 6.0 1.9999999999999998
    vertex 33.999999999999986 3.0 17.00000000000003
    vertex 33.999999999999986 3.0 1.9999999999999998
  endloop
endfacet
facet normal 1.0 -0.0 -0.0
  outer loop
    vertex 33.999999999999986 3.0 17.00000000000003
    vertex 33.999999999999986 6.0 1.9999999999999998
    vertex 33.999999999999986 6.0 17.00000000000003
  endloop
endfacet
facet normal 0.0 1.0 0.0
  outer loop
    vertex 31.999999999999986 6.0 17.00000000000003
    vertex 33.999999999999986 6.0 1.9999999999999998
    vertex 31.999999999999986 6.0 1.9999999999999998
  endloop
endfacet
facet normal 0.0 1.0 0.0
  outer loop
    vertex 33.999999999999986 6.0 1.9999999999999998
    vertex 31.999999999999986 6.0 17.00000000000003
    vertex 33.999999999999986 6.0 17.00000000000003
  endloop
endfacet
facet normal -1.0 0.0 0.0
  outer loop
    vertex 31.999999999999986 6.0 17.00000000000003
    vertex 31.999999999999986 3.0 1.9999999999999998
    vertex 31.999999999999986 3.0 17.00000000000003
  endloop
endfacet
facet normal -1.0 0.0 0.0
  outer loop
    vertex 31.999999999999986 3.0 1.9999999999999998
    vertex 31.999999999999986 6.0 17.00000000000003
    vertex 31.999999999999986 6.0 1.9999999999999998
  endloop
endfacet
facet normal -0.0 -0.0 1.0
  outer loop
    vertex 38.99999999999999 3.0 17.000000000000032
    vertex 36.999999999999986 6.0 17.000000000000032
    vertex 36.999999999999986 3.0 17.000000000000032
  endloop
endfacet
facet normal -0.0 -0.0 1.0
  outer loop
    vertex 36.999999999999986 6.0 17.000000000000032
    vertex 38.99999999999999 3.0 17.000000000000032
    vertex 38.99999999999999 6.0 17.000000000000032
  endloop
endfacet
facet normal 1.0 -0.0 -0.0
  outer loop
    vertex 38.99999999999999 6.0 1.9999999999999998
    vertex 38.99999999999999 3.0 17.000000000000032
    vertex 38.99999999999999 3.0 1.9999999999999998
  endloop
endfacet
facet normal 1.0 -0.0 -0.0
  outer loop
    vertex 38.99999999999999 3.0 17.000000000000032
    vertex 38.99999999999999 6.0 1.9999999999999998
    vertex 38.99999999999999 6.0 17.000000000000032
  endloop
endfacet
facet normal 0.0 1.0 0.0
  outer loop
    vertex 36.999999999999986 6.0 17.000000000000032
    vertex 38.99999999999999 6.0 1.9999999999999998
    vertex 36.999999999999986 6.0 1.9999999999999998
  endloop
endfacet
facet normal 0.0 1.0 0.0
  outer loop
    vertex 38.99999999999999 6.0 1.9999999999999998
    vertex 36.999999999999986 6.0 17.000000000000032
    vertex 38.99999999999999 6.0 17.000000000000032
  endloop
endfacet
facet normal -1.0 0.0 0.0
  outer loop
    vertex 36.999999999999986 6.0 17.000000000000032
    vertex 36.999999999999986 3.0 1.9999999999999998
    vertex 36.999999999999986 3.0 17.000000000000032
  endloop
endfacet
facet normal -1.0 0.0 0.0
  outer loop
    vertex 36.999999999999986 3.0 1.9999999999999998
    vertex 36.999999999999986 6.0 17.000000000000032
    vertex 36.999999999999986 6.0 1.9999999999999998
  endloop
endfacet
facet normal -0.0 -0.0 1.0
  outer loop
    vertex 43.99999999999999 3.0 17.000000000000036
    vertex 41.99999999999999 6.0 17.000000000000036
    vertex 41.99999999999999 3.0 17.000000000000036
  endloop
endfacet
facet normal -0.0 -0.0 1.0
  outer loop
    vertex 41.99999999999999 6.0 17.000000000000036
    vertex 43.99999999999999 3.0 17.000000000000036
    vertex 43.99999999999999 6.0 17.000000000000036
  endloop
endfacet
facet normal 1.0 -0.0 -0.0
  outer loop
    vertex 43.99999999999999 6.0 1.9999999999999998
    vertex 43.99999999999999 3.0 17.000000000000036
    vertex 43.99999999999999 3.0 1.9999999999999998
  endloop
endfacet
facet normal 1.0 -0.0 -0.0
  outer loop
    vertex 43.99999999999999 3.0 17.000000000000036
    vertex 43.99999999999999 6.0 1.9999999999999998
    vertex 43.99999999999999 6.0 17.000000000000036
  endloop
endfacet
facet normal 0.0 1.0 0.0
  outer loop
    vertex 41.99999999999999 6.0 17.000000000000036
    vertex 43.99999999999999 6.0 1.9999999999999998
    vertex 41.99999999999999 6.0 1.9999999999999998
  endloop
endfacet
facet normal 0.0 1.0 0.0
  outer loop
    vertex 43.99999999999999 6.0 1.9999999999999998
    vertex 41.99999999999999 6.0 17.000000000000036
    vertex 43.99999999999999 6.0 17.000000000000036
  endloop
endfacet
facet normal -1.0 0.0 0.0
  outer loop
    vertex 41.99999999999999 6.0 17.000000000000036
    vertex 41.99999999999999 3.0 1.9999999999999998
    vertex 41.99999999999999 3.0 17.000000000000036
  endloop
endfacet
facet normal -1.0 0.0 0.0
  outer loop
    vertex 41.99999999999999 3.0 1.9999999999999998
    vertex 41.99999999999999 6.0 17.000000000000036
    vertex 41.99999999999999 6.0 1.9999999999999998
  endloop
endfacet
facet normal -0.0 -0.0 1.0
  outer loop
    vertex 48.99999999999999 3.0 17.00000000000004
    vertex 46.99999999999999 6.0 17.00000000000004
    vertex 46.99999999999999 3.0 17.00000000000004
  endloop
endfacet
facet normal -0.0 -0.0 1.0
  outer loop
    vertex 46.99999999999999 6.0 17.00000000000004
    vertex 48.99999999999999 3.0 17.00000000000004
    vertex 48.99999999999999 6.0 17.00000000000004
  endloop
endfacet
facet normal 1.0 -0.0 -0.0
  outer loop
    vertex 48.99999999999999 6.0 1.9999999999999998
    vertex 48.99999999999999 3.0 17.00000000000004
    vertex 48.99999999999999 3.0 1.9999999999999998
  endloop
endfacet
facet normal 1.0 -0.0 -0.0
  outer loop
    vertex 48.99999999999999 3.0 17.00000000000004
    vertex 48.99999999999999 6.0 1.9999999999999998
    vertex 48.99999999999999 6.0 17.00000000000004
  endloop
endfacet
facet normal 0.0 1.0 0.0
  outer loop
    vertex 46.99999999999999 6.0 17.00000000000004
    vertex 48.99999999999999 6.0 1.9999999999999998
    vertex 46.99999999999999 6.0 1.9999999999999998
  endloop
endfacet
facet normal 0.0 1.0 0.0
  outer loop
    vertex 48.99999999999999 6.0 1.9999999999999998
    vertex 46.99999999999999 6.0 17.00000000000004
    vertex 48.99999999999999 6.0 17.00000000000004
  endloop
endfacet
facet normal -1.0 0.0 0.0
  outer loop
    vertex 46.99999999999999 6.0 17.00000000000004
    vertex 46.99999999999999 3.0 1.9999999999999998
    vertex 46.99999999999999 3.0 17.00000000000004
  endloop
endfacet
facet normal -1.0 0.0 0.0
  outer loop
    vertex 46.99999999999999 3.0 1.9999999999999998
    vertex 46.99999999999999 6.0 17.00000000000004
    vertex 46.99999999999999 6.0 1.9999999999999998
  endloop
endfacet
facet normal -0.0 -0.0 1.0
  outer loop
    vertex 53.99999999999999 3.0 17.000000000000043
    vertex 51.99999999999999 6.0 17.000000000000043
    vertex 51.99999999999999 3.0 17.000000000000043
  endloop
endfacet
facet normal -0.0 -0.0 1.0
  outer loop
    vertex 51.99999999999999 6.0 17.000000000000043
    vertex 53.99999999999999 3.0 17.000000000000043
    vertex 53.99999999999999 6.0 17.000000000000043
  endloop
endfacet
facet normal 1.0 -0.0 -0.0
  outer loop
    vertex 53.99999999999999 6.0 1.9999999999999998
    vertex 53.99999999999999 3.0 17.000000000000043
    vertex 53.99999999999999 3.0 1.9999999999999998
  endloop
endfacet
facet normal 1.0 -0.0 -0.0
  outer loop
    vertex 53.99999999999999 3.0 17.000000000000043
    vertex 53.99999999999999 6.0 1.9999999999999998
    vertex 53.99999999999999 6.0 17.000000000000043
  endloop
endfacet
facet normal 0.0 1.0 0.0
  outer loop
    vertex 51.99999999999999 6.0 17.000000000000043
    vertex 53.99999999999999 6.0 1.9999999999999998
    vertex 51.99999999999999 6.0 1.9999999999999998
  endloop
endfacet
facet normal 0.0 1.0 0.0
  outer loop
    vertex 53.99999999999999 6.0 1.9999999999999998
    vertex 51.99999999999999 6.0 17.000000000000043
    vertex 53.99999999999999 6.0 17.000000000000043
  endloop
endfacet
facet normal -1.0 0.0 0.0
  outer loop
    vertex 51.99999999999999 6.0 17.000000000000043
    vertex 51.99999999999999 3.0 1.9999999999999998
    vertex 51.99999999999999 3.0 17.000000000000043
  endloop
endfacet
facet normal -1.0 0.0 0.0
  outer loop
    vertex 51.99999999999999 3.0 1.9999999999999998
    vertex 51.99999999999999 6.0 17.000000000000043
    vertex 51.99999999999999 6.0 1.9999999999999998
  endloop
endfacet
facet normal -0.0 -0.0 1.0
  outer loop
    vertex 58.99999999999999 3.0 17.000000000000046
    vertex 57.0 6.0 17.000000000000046
    vertex 57.0 3.0 17.000000000000046
  endloop
endfacet
facet normal -0.0 -0.0 1.0
  outer loop
    vertex 57.0 6.0 17.000000000000046
    vertex 58.99999999999999 3.0 17.000000000000046
    vertex 58.99999999999999 6.0 17.000000000000046
  endloop
endfacet
facet normal 1.0 -0.0 -0.0
  outer loop
    vertex 58.99999999999999 6.0 1.9999999999999998
    vertex 58.99999999999999 3.0 17.000000000000046
    vertex 58.99999999999999 3.0 1.9999999999999998
  endloop
endfacet
facet normal 1.0 -0.0 -0.0
  outer loop
    vertex 58.99999999999999 3.0 17.000000000000046
    vertex 58.99999999999999 6.0 1.9999999999999998
    vertex 58.99999999999999 6.0 17.000000000000046
  endloop
endfacet
facet normal 0.0 1.0 0.0
  outer loop
    vertex 57.0 6.0 17.000000000000046
    vertex 58.99999999999999 6.0 1.9999999999999998
    vertex 57.0 6.0 1.9999999999999998
  endloop
endfacet
facet normal 0.0 1.0 0.0
  outer loop
    vertex 58.99999999999999 6.0 1.9999999999999998
    vertex 57.0 6.0 17.000000000000046
    vertex 58.99999999999999 6.0 17.000000000000046
  endloop
endfacet
facet normal -1.0 0.0 0.0
  outer loop
    vertex 57.0 6.0 17.000000000000046
    vertex 57.0 3.0 1.9999999999999998
    vertex 57.0 3.0 17.000000000000046
  endloop
endfacet
facet normal -1.0 0.0 0.0
  outer loop
    vertex 57.0 3.0 1.9999999999999998
    vertex 57.0 6.0 17.000000000000046
    vertex 57.0 6.0 1.9999999999999998
  endloop
endfacet
facet normal 3.309924640679447e-31 -1.0 -1.4739008282437433e-31
  outer loop
    vertex 63.0 28.999999999999996 38.0
    vertex 58.99999999999999 28.999999999999996 1.9999999999999998
    vertex 63.0 28.999999999999996 1.9999999999999998
  endloop
endfacet
facet normal 3.309924640679447e-31 -1.0 -1.4739008282437433e-31
  outer loop
    vertex 58.99999999999999 28.999999999999996 1.9999999999999998
    vertex 63.0 28.999999999999996 38.0
    vertex 58.99999999999999 28.999999999999996 16.999999999999993
  endloop
endfacet
facet normal 3.309924640679447e-31 -1.0 -1.4739008282437433e-31
  outer loop
    vertex 58.99999999999999 28.999999999999996 16.999999999999993
    vertex 63.0 28.999999999999996 38.0
    vertex 56.999999999999986 28.999999999999996 16.999999999999993
  endloop
endfacet
facet normal 3.309924640679447e-31 -1.0 -1.4739008282437433e-31
  outer loop
    vertex 56.999999999999986 28.999999999999996 16.999999999999993
    vertex 63.0 28.999999999999996 38.0
    vertex 53.99999999999999 28.999999999999996 17.0
  endloop
endfacet
facet normal 3.309924640679447e-31 -1.0 -1.4739008282437433e-31
  outer loop
    vertex 53.99999999999999 28.999999999999996 17.0
    vertex 63.0 28.999999999999996 38.0
    vertex 51.99999999999999 28.999999999999996 17.0
  endloop
endfacet
facet normal 3.309924640679447e-31 -1.0 -1.4739008282437433e-31
  outer loop
    vertex 51.99999999999999 28.999999999999996 17.0
    vertex 63.0 28.999999999999996 38.0
    vertex 48.99999999999999 28.999999999999996 17.0
  endloop
endfacet
facet normal 3.309924640679447e-31 -1.0 -1.4739008282437433e-31
  outer loop
    vertex 48.99999999999999 28.999999999999996 17.0
    vertex 63.0 28.999999999999996 38.0
    vertex 46.99999999999999 28.999999999999996 17.0
  endloop
endfacet
facet normal 3.309924640679447e-31 -1.0 -1.4739008282437433e-31
  outer loop
    vertex 46.99999999999999 28.999999999999996 17.0
    vertex 63.0 28.999999999999996 38.0
    vertex 43.99999999999999 28.999999999999996 17.0
  endloop
endfacet
facet normal 3.309924640679447e-31 -1.0 -1.4739008282437433e-31
  outer loop
    vertex 43.99999999999999 28.999999999999996 17.0
    vertex 63.0 28.999999999999996 38.0
    vertex 41.99999999999999 28.999999999999996 17.0
  endloop
endfacet
facet normal 3.309924640679447e-31 -1.0 -1.4739008282437433e-31
  outer loop
    vertex 41.99999999999999 28.999999999999996 17.0
    vertex 63.0 28.999999999999996 38.0
    vertex 38.99999999999999 28.999999999999996 17.0
  endloop
endfacet
facet normal 3.309924640679447e-31 -1.0 -1.4739008282437433e-31
  outer loop
    vertex 38.99999999999999 28.999999999999996 17.0
    vertex 63.0 28.999999999999996 38.0
    vertex 36.999999999999986 28.999999999999996 17.0
  endloop
endfacet
facet normal 3.309924640679447e-31 -1.0 -1.4739008282437433e-31
  outer loop
    vertex 36.999999999999986 28.999999999999996 17.0
    vertex 63.0 28.999999999999996 38.0
    vertex 33.999999999999986 28.999999999999996 17.0
  endloop
endfacet
facet normal 3.309924640679447e-31 -1.0 -1.4739008282437433e-31
  outer loop
    vertex 33.999999999999986 28.999999999999996 17.0
    vertex 63.0 28.999999999999996 38.0
    vertex 31.999999999999986 28.999999999999996 17.0
  endloop
endfacet
facet normal 3.309924640679447e-31 -1.0 -1.4739008282437433e-31
  outer loop
    vertex 31.999999999999986 28.999999999999996 17.0
    vertex 63.0 28.999999999999996 38.0
    vertex 28.999999999999986 28.999999999999996 17.0
  endloop
endfacet
facet normal 3.309924640679447e-31 -1.0 -1.4739008282437433e-31
  outer loop
    vertex 28.999999999999986 28.999999999999996 17.0
    vertex 63.0 28.999999999999996 38.0
    vertex 26.999999999999986 28.999999999999996 17.0
  endloop
endfacet
facet normal 3.309924640679447e-31 -1.0 -1.4739008282437433e-31
  outer loop
    vertex 26.999999999999986 28.999999999999996 17.0
    vertex 63.0 28.999999999999996 38.0
    vertex 23.999999999999986 28.999999999999996 17.0
  endloop
endfacet
facet normal 3.309924640679447e-31 -1.0 -1.4739008282437433e-31
  outer loop
    vertex 23.999999999999986 28.999999999999996 17.0
    vertex 63.0 28.999999999999996 38.0
    vertex 21.999999999999986 28.999999999999996 17.0
  endloop
endfacet
facet normal 3.309924640679447e-31 -1.0 -1.4739008282437433e-31
  outer loop
    vertex 21.999999999999986 28.999999999999996 17.0
    vertex 63.0 28.999999999999996 38.0
    vertex 18.999999999999982 28.999999999999996 17.0
  endloop
endfacet
facet normal 3.309924640679447e-31 -1.0 -1.4739008282437433e-31
  outer loop
    vertex 18.999999999999982 28.999999999999996 17.0
    vertex 63.0 28.999999999999996 38.0
    vertex 16.999999999999986 28.999999999999996 17.0
  endloop
endfacet
facet normal 3.309924640679447e-31 -1.0 -1.4739008282437433e-31
  outer loop
    vertex 16.999999999999986 28.999999999999996 17.0
    vertex 63.0 28.999999999999996 38.0
    vertex 13.999999999999986 28.999999999999996 17.0
  endloop
endfacet
facet normal 3.309924640679447e-31 -1.0 -1.4739008282437433e-31
  outer loop
    vertex 13.999999999999986 28.999999999999996 17.0
    vertex 63.0 28.999999999999996 38.0
    vertex 11.999999999999986 28.999999999999996 17.0
  endloop
endfacet
facet normal 3.309924640679447e-31 -1.0 -1.4739008282437433e-31
  outer loop
    vertex 11.999999999999986 28.999999999999996 17.0
    vertex 63.0 28.999999999999996 38.0
    vertex 8.999999999999988 28.999999999999996 17.0
  endloop
endfacet
facet normal 3.309924640679447e-31 -1.0 -1.4739008282437433e-31
  outer loop
    vertex 8.999999999999988 28.999999999999996 17.0
    vertex 63.0 28.999999999999996 38.0
    vertex 6.999999999999988 28.999999999999996 17.0
  endloop
endfacet
facet normal 3.309924640679447e-31 -1.0 -1.4739008282437433e-31
  outer loop
    vertex 6.999999999999988 28.999999999999996 17.0
    vertex 3.0 28.999999999999996 1.9999999999999998
    vertex 6.999999999999988 28.999999999999996 1.9999999999999998
  endloop
endfacet
facet normal 3.309924640679447e-31 -1.0 -1.4739008282437433e-31
  outer loop
    vertex 3.0 28.999999999999996 1.9999999999999998
    vertex 6.999999999999988 28.999999999999996 17.0
    vertex 3.0 28.999999999999996 38.0
  endloop
endfacet
facet normal 3.309924640679447e-31 -1.0 -1.4739008282437433e-31
  outer loop
    vertex 3.0 28.999999999999996 38.0
    vertex 6.999999999999988 28.999999999999996 17.0
    vertex 63.0 28.999999999999996 38.0
  endloop
endfacet
facet normal 3.309924640679447e-31 -1.0 -1.4739008282437433e-31
  outer loop
    vertex 11.999999999999986 28.999999999999996 17.0
    vertex 8.999999999999988 28.999999999999996 1.9999999999999998
    vertex 11.999999999999986 28.999999999999996 1.9999999999999998
  endloop
endfacet
facet normal 3.309924640679447e-31 -1.0 -1.4739008282437433e-31
  outer loop
    vertex 8.999999999999988 28.999999999999996 1.9999999999999998
    vertex 11.999999999999986 28.999999999999996 17.0
    vertex 8.999999999999988 28.999999999999996 17.0
  endloop
endfacet
facet normal 3.309924640679447e-31 -1.0 -1.4739008282437433e-31
  outer loop
    vertex 16.999999999999986 28.999999999999996 17.0
    vertex 13.999999999999986 28.999999999999996 1.9999999999999998
    vertex 16.999999999999986 28.999999999999996 1.9999999999999998
  endloop
endfacet
facet normal 3.309924640679447e-31 -1.0 -1.4739008282437433e-31
  outer loop
    vertex 13.999999999999986 28.999999999999996 1.9999999999999998
    vertex 16.999999999999986 28.999999999999996 17.0
    vertex 13.999999999999986 28.999999999999996 17.0
  endloop
endfacet
facet normal 3.309924640679447e-31 -1.0 -1.4739008282437433e-31
  outer loop
    vertex 21.999999999999986 28.999999999999996 17.0
    vertex 18.999999999999982 28.999999999999996 1.9999999999999998
    vertex 21.999999999999986 28.999999999999996 1.9999999999999998
  endloop
endfacet
facet normal 3.309924640679447e-31 -1.0 -1.4739008282437433e-31
  outer loop
    vertex 18.999999999999982 28.999999999999996 1.9999999999999998
    vertex 21.999999999999986 28.999999999999996 17.0
    vertex 18.999999999999982 28.999999999999996 17.0
  endloop
endfacet
facet normal 3.309924640679447e-31 -1.0 -1.4739008282437433e-31
  outer loop
    vertex 26.999999999999986 28.999999999999996 17.0
    vertex 23.999999999999986 28.999999999999996 1.9999999999999998
    vertex 26.999999999999986 28.999999999999996 1.9999999999999998
  endloop
endfacet
facet normal 3.309924640679447e-31 -1.0 -1.4739008282437433e-31
  outer loop
    vertex 23.999999999999986 28.999999999999996 1.9999999999999998
    vertex 26.999999999999986 28.999999999999996 17.0
    vertex 23.999999999999986 28.999999999999996 17.0
  endloop
endfacet
facet normal 3.309924640679447e-31 -1.0 -1.4739008282437433e-31
  outer loop
    vertex 31.999999999999986 28.999999999999996 17.0
    vertex 28.999999999999986 28.999999999999996 1.9999999999999998
    vertex 31.999999999999986 28.999999999999996 1.9999999999999998
  endloop
endfacet
facet normal 3.309924640679447e-31 -1.0 -1.4739008282437433e-31
  outer loop
    vertex 28.999999999999986 28.999999999999996 1.9999999999999998
    vertex 31.999999999999986 28.999999999999996 17.0
    vertex 28.999999999999986 28.999999999999996 17.0
  endloop
endfacet
facet normal 3.309924640679447e-31 -1.0 -1.4739008282437433e-31
  outer loop
    vertex 36.999999999999986 28.999999999999996 17.0
    vertex 33.999999999999986 28.999999999999996 1.9999999999999998
    vertex 36.999999999999986 28.999999999999996 1.9999999999999998
  endloop
endfacet
facet normal 3.309924640679447e-31 -1.0 -1.4739008282437433e-31
  outer loop
    vertex 33.999999999999986 28.999999999999996 1.9999999999999998
    vertex 36.999999999999986 28.999999999999996 17.0
    vertex 33.999999999999986 28.999999999999996 17.0
  endloop
endfacet
facet normal 3.309924640679447e-31 -1.0 -1.4739008282437433e-31
  outer loop
    vertex 41.99999999999999 28.999999999999996 17.0
    vertex 38.99999999999999 28.999999999999996 1.9999999999999998
    vertex 41.99999999999999 28.999999999999996 1.9999999999999998
  endloop
endfacet
facet normal 3.309924640679447e-31 -1.0 -1.4739008282437433e-31
  outer loop
    vertex 38.99999999999999 28.999999999999996 1.9999999999999998
    vertex 41.99999999999999 28.999999999999996 17.0
    vertex 38.99999999999999 28.999999999999996 17.0
  endloop
endfacet
facet normal 3.309924640679447e-31 -1.0 -1.4739008282437433e-31
  outer loop
    vertex 46.99999999999999 28.999999999999996 17.0
    vertex 43.99999999999999 28.999999999999996 1.9999999999999998
    vertex 46.99999999999999 28.999999999999996 1.9999999999999998
  endloop
endfacet
facet normal 3.309924640679447e-31 -1.0 -1.4739008282437433e-31
  outer loop
    vertex 43.99999999999999 28.999999999999996 1.9999999999999998
    vertex 46.99999999999999 28.999999999999996 17.0
    vertex 43.99999999999999 28.999999999999996 17.0
  endloop
endfacet
facet normal 3.309924640679447e-31 -1.0 -1.4739008282437433e-31
  outer loop
    vertex 51.99999999999999 28.999999999999996 17.0
    vertex 48.99999999999999 28.999999999999996 1.9999999999999998
    vertex 51.99999999999999 28.999999999999996 1.9999999999999998
  endloop
endfacet
facet normal 3.309924640679447e-31 -1.0 -1.4739008282437433e-31
  outer loop
    vertex 48.99999999999999 28.999999999999996 1.9999999999999998
    vertex 51.99999999999999 28.999999999999996 17.0
    vertex 48.99999999999999 28.999999999999996 17.0
  endloop
endfacet
facet normal 3.309924640679447e-31 -1.0 -1.4739008282437433e-31
  outer loop
    vertex 56.999999999999986 28.999999999999996 16.999999999999993
    vertex 53.99999999999999 28.999999999999996 1.9999999999999998
    vertex 56.999999999999986 28.999999999999996 1.9999999999999998
  endloop
endfacet
facet normal 3.309924640679447e-31 -1.0 -1.4739008282437433e-31
  outer loop
    vertex 53.99999999999999 28.999999999999996 1.9999999999999998
    vertex 56.999999999999986 28.999999999999996 16.999999999999993
    vertex 53.99999999999999 28.999999999999996 17.0
  endloop
endfacet
facet normal -1.0 -0.0 -0.0
  outer loop
    vertex 63.0 28.999999999999996 38.0
    vertex 63.0 3.0 1.9999999999999998
    vertex 63.0 3.0 38.0
  endloop
endfacet
facet normal -1.0 -0.0 -0.0
  outer loop
    vertex 63.0 3.0 1.9999999999999998
    vertex 63.0 28.999999999999996 38.0
    vertex 63.0 28.999999999999996 1.9999999999999998
  endloop
endfacet
facet normal -2.8510725117550366e-33 1.0 2.1297698779099999e-32
  outer loop
    vertex 3.0 3.0 38.0
    vertex 6.999999999999988 3.0 1.9999999999999998
    vertex 3.0 3.0 1.9999999999999998
  endloop
endfacet
facet normal -2.8510725117550366e-33 1.0 2.1297698779099999e-32
  outer loop
    vertex 6.999999999999988 3.0 1.9999999999999998
    vertex 3.0 3.0 38.0
    vertex 6.999999999999988 3.0 17.000000000000007
  endloop
endfacet
facet normal -2.8510725117550366e-33 1.0 2.1297698779099999e-32
  outer loop
    vertex 6.999999999999988 3.0 17.000000000000007
    vertex 3.0 3.0 38.0
    vertex 8.999999999999986 3.0 17.000000000000007
  endloop
endfacet
facet normal -2.8510725117550366e-33 1.0 2.1297698779099999e-32
  outer loop
    vertex 8.999999999999986 3.0 17.000000000000007
    vertex 3.0 3.0 38.0
    vertex 11.999999999999988 3.0 17.00000000000001
  endloop
endfacet
facet normal -2.8510725117550366e-33 1.0 2.1297698779099999e-32
  outer loop
    vertex 11.999999999999988 3.0 17.00000000000001
    vertex 3.0 3.0 38.0
    vertex 13.999999999999986 3.0 17.00000000000001
  endloop
endfacet
facet normal -2.8510725117550366e-33 1.0 2.1297698779099999e-32
  outer loop
    vertex 13.999999999999986 3.0 17.00000000000001
    vertex 3.0 3.0 38.0
    vertex 16.999999999999986 3.0 17.000000000000014
  endloop
endfacet
facet normal -2.8510725117550366e-33 1.0 2.1297698779099999e-32
  outer loop
    vertex 16.999999999999986 3.0 17.000000000000014
    vertex 3.0 3.0 38.0
    vertex 18.999999999999986 3.0 17.000000000000014
  endloop
endfacet
facet normal -2.8510725117550366e-33 1.0 2.1297698779099999e-32
  outer loop
    vertex 18.999999999999986 3.0 17.000000000000014
    vertex 3.0 3.0 38.0
    vertex 21.999999999999986 3.0 17.00000000000002
  endloop
endfacet
facet normal -2.8510725117550366e-33 1.0 2.1297698779099999e-32
  outer loop
    vertex 21.999999999999986 3.0 17.00000000000002
    vertex 3.0 3.0 38.0
    vertex 23.999999999999986 3.0 17.00000000000002
  endloop
endfacet
facet normal -2.8510725117550366e-33 1.0 2.1297698779099999e-32
  outer loop
    vertex 23.999999999999986 3.0 17.00000000000002
    vertex 3.0 3.0 38.0
    vertex 26.999999999999986 3.0 17.000000000000025
  endloop
endfacet
facet normal -2.8510725117550366e-33 1.0 2.1297698779099999e-32
  outer loop
    vertex 26.999999999999986 3.0 17.000000000000025
    vertex 3.0 3.0 38.0
    vertex 28.999999999999986 3.0 17.000000000000025
  endloop
endfacet
facet normal -2.8510725117550366e-33 1.0 2.1297698779099999e-32
  outer loop
    vertex 28.999999999999986 3.0 17.000000000000025
    vertex 3.0 3.0 38.0
    vertex 31.999999999999986 3.0 17.00000000000003
  endloop
endfacet
facet normal -2.8510725117550366e-33 1.0 2.1297698779099999e-32
  outer loop
    vertex 31.999999999999986 3.0 17.00000000000003
    vertex 3.0 3.0 38.0
    vertex 33.999999999999986 3.0 17.00000000000003
  endloop
endfacet
facet normal -2.8510725117550366e-33 1.0 2.1297698779099999e-32
  outer loop
    vertex 33.999999999999986 3.0 17.00000000000003
    vertex 3.0 3.0 38.0
    vertex 36.999999999999986 3.0 17.000000000000032
  endloop
endfacet
facet normal -2.8510725117550366e-33 1.0 2.1297698779099999e-32
  outer loop
    vertex 36.999999999999986 3.0 17.000000000000032
    vertex 3.0 3.0 38.0
    vertex 38.99999999999999 3.0 17.000000000000032
  endloop
endfacet
facet normal -2.8510725117550366e-33 1.0 2.1297698779099999e-32
  outer loop
    vertex 38.99999999999999 3.0 17.000000000000032
    vertex 3.0 3.0 38.0
    vertex 41.99999999999999 3.0 17.000000000000036
  endloop
endfacet
facet normal -2.8510725117550366e-33 1.0 2.1297698779099999e-32
  outer loop
    vertex 41.99999999999999 3.0 17.000000000000036
    vertex 3.0 3.0 38.0
    vertex 43.99999999999999 3.0 17.000000000000036
  endloop
endfacet
facet normal -2.8510725117550366e-33 1.0 2.1297698779099999e-32
  outer loop
    vertex 43.99999999999999 3.0 17.000000000000036
    vertex 3.0 3.0 38.0
    vertex 46.99999999999999 3.0 17.00000000000004
  endloop
endfacet
facet normal -2.8510725117550366e-33 1.0 2.1297698779099999e-32
  outer loop
    vertex 46.99999999999999 3.0 17.00000000000004
    vertex 3.0 3.0 38.0
    vertex 48.99999999999999 3.0 17.00000000000004
  endloop
endfacet
facet normal -2.8510725117550366e-33 1.0 2.1297698779099999e-32
  outer loop
    vertex 48.99999999999999 3.0 17.00000000000004
    vertex 3.0 3.0 38.0
    vertex 51.99999999999999 3.0 17.000000000000043
  endloop
endfacet
facet normal -2.8510725117550366e-33 1.0 2.1297698779099999e-32
  outer loop
    vertex 51.99999999999999 3.0 17.000000000000043
    vertex 3.0 3.0 38.0
    vertex 53.99999999999999 3.0 17.000000000000043
  endloop
endfacet
facet normal -2.8510725117550366e-33 1.0 2.1297698779099999e-32
  outer loop
    vertex 53.99999999999999 3.0 17.000000000000043
    vertex 3.0 3.0 38.0
    vertex 57.0 3.0 17.000000000000046
  endloop
endfacet
facet normal -2.8510725117550366e-33 1.0 2.1297698779099999e-32
  outer loop
    vertex 57.0 3.0 17.000000000000046
    vertex 3.0 3.0 38.0
    vertex 58.99999999999999 3.0 17.000000000000046
  endloop
endfacet
facet normal -2.8510725117550366e-33 1.0 2.1297698779099999e-32
  outer loop
    vertex 58.99999999999999 3.0 17.000000000000046
    vertex 63.0 3.0 1.9999999999999998
    vertex 58.99999999999999 3.0 1.9999999999999998
  endloop
endfacet
facet normal -2.8510725117550366e-33 1.0 2.1297698779099999e-32
  outer loop
    vertex 63.0 3.0 1.9999999999999998
    vertex 58.99999999999999 3.0 17.000000000000046
    vertex 63.0 3.0 38.0
  endloop
endfacet
facet normal -2.8510725117550366e-33 1.0 2.1297698779099999e-32
  outer loop
    vertex 63.0 3.0 38.0
    vertex 58.99999999999999 3.0 17.000000000000046
    vertex 3.0 3.0 38.0
  endloop
endfacet
facet normal -2.8510725117550366e-33 1.0 2.1297698779099999e-32
  outer loop
    vertex 53.99999999999999 3.0 17.000000000000043
    vertex 57.0 3.0 1.9999999999999998
    vertex 53.99999999999999 3.0 1.9999999999999998
  endloop
endfacet
facet normal -2.8510725117550366e-33 1.0 2.1297698779099999e-32
  outer loop
    vertex 57.0 3.0 1.9999999999999998
    vertex 53.99999999999999 3.0 17.000000000000043
    vertex 57.0 3.0 17.000000000000046
  endloop
endfacet
facet normal -2.8510725117550366e-33 1.0 2.1297698779099999e-32
  outer loop
    vertex 48.99999999999999 3.0 17.00000000000004
    vertex 51.99999999999999 3.0 1.9999999999999998
    vertex 48.99999999999999 3.0 1.9999999999999998
  endloop
endfacet
facet normal -2.8510725117550366e-33 1.0 2.1297698779099999e-32
  outer loop
    vertex 51.99999999999999 3.0 1.9999999999999998
    vertex 48.99999999999999 3.0 17.00000000000004
    vertex 51.99999999999999 3.0 17.000000000000043
  endloop
endfacet
facet normal -2.8510725117550366e-33 1.0 2.1297698779099999e-32
  outer loop
    vertex 43.99999999999999 3.0 17.000000000000036
    vertex 46.99999999999999 3.0 1.9999999999999998
    vertex 43.99999999999999 3.0 1.9999999999999998
  endloop
endfacet
facet normal -2.8510725117550366e-33 1.0 2.1297698779099999e-32
  outer loop
    vertex 46.99999999999999 3.0 1.9999999999999998
    vertex 43.99999999999999 3.0 17.000000000000036
    vertex 46.99999999999999 3.0 17.00000000000004
  endloop
endfacet
facet normal -2.8510725117550366e-33 1.0 2.1297698779099999e-32
  outer loop
    vertex 38.99999999999999 3.0 17.000000000000032
    vertex 41.99999999999999 3.0 1.9999999999999998
    vertex 38.99999999999999 3.0 1.9999999999999998
  endloop
endfacet
facet normal -2.8510725117550366e-33 1.0 2.1297698779099999e-32
  outer loop
    vertex 41.99999999999999 3.0 1.9999999999999998
    vertex 38.99999999999999 3.0 17.000000000000032
    vertex 41.99999999999999 3.0 17.000000000000036
  endloop
endfacet
facet normal -2.8510725117550366e-33 1.0 2.1297698779099999e-32
  outer loop
    vertex 33.999999999999986 3.0 17.00000000000003
    vertex 36.999999999999986 3.0 1.9999999999999998
    vertex 33.999999999999986 3.0 1.9999999999999998
  endloop
endfacet
facet normal -2.8510725117550366e-33 1.0 2.1297698779099999e-32
  outer loop
    vertex 36.999999999999986 3.0 1.9999999999999998
    vertex 33.999999999999986 3.0 17.00000000000003
    vertex 36.999999999999986 3.0 17.000000000000032
  endloop
endfacet
facet normal -2.8510725117550366e-33 1.0 2.1297698779099999e-32
  outer loop
    vertex 28.999999999999986 3.0 17.000000000000025
    vertex 31.999999999999986 3.0 1.9999999999999998
    vertex 28.999999999999986 3.0 1.9999999999999998
  endloop
endfacet
facet normal -2.8510725117550366e-33 1.0 2.1297698779099999e-32
  outer loop
    vertex 31.999999999999986 3.0 1.9999999999999998
    vertex 28.999999999999986 3.0 17.000000000000025
    vertex 31.999999999999986 3.0 17.00000000000003
  endloop
endfacet
facet normal -2.8510725117550366e-33 1.0 2.1297698779099999e-32
  outer loop
    vertex 23.999999999999986 3.0 17.00000000000002
    vertex 26.999999999999986 3.0 1.9999999999999998
    vertex 23.999999999999986 3.0 1.9999999999999998
  endloop
endfacet
facet normal -2.8510725117550366e-33 1.0 2.1297698779099999e-32
  outer loop
    vertex 26.999999999999986 3.0 1.9999999999999998
    vertex 23.999999999999986 3.0 17.00000000000002
    vertex 26.999999999999986 3.0 17.000000000000025
  endloop
endfacet
facet normal -2.8510725117550366e-33 1.0 2.1297698779099999e-32
  outer loop
    vertex 18.999999999999986 3.0 17.000000000000014
    vertex 21.999999999999986 3.0 1.9999999999999998
    vertex 18.999999999999986 3.0 1.9999999999999998
  endloop
endfacet
facet normal -2.8510725117550366e-33 1.0 2.1297698779099999e-32
  outer loop
    vertex 21.999999999999986 3.0 1.9999999999999998
    vertex 18.999999999999986 3.0 17.000000000000014
    vertex 21.999999999999986 3.0 17.00000000000002
  endloop
endfacet
facet normal -2.8510725117550366e-33 1.0 2.1297698779099999e-32
  outer loop
    vertex 13.999999999999986 3.0 17.00000000000001
    vertex 16.999999999999986 3.0 1.9999999999999998
    vertex 13.999999999999986 3.0 1.9999999999999998
  endloop
endfacet
facet normal -2.8510725117550366e-33 1.0 2.1297698779099999e-32
  outer loop
    vertex 16.999999999999986 3.0 1.9999999999999998
    vertex 13.999999999999986 3.0 17.00000000000001
    vertex 16.999999999999986 3.0 17.000000000000014
  endloop
endfacet
facet normal -2.8510725117550366e-33 1.0 2.1297698779099999e-32
  outer loop
    vertex 8.999999999999986 3.0 17.000000000000007
    vertex 11.999999999999988 3.0 1.9999999999999998
    vertex 8.999999999999986 3.0 1.9999999999999998
  endloop
endfacet
facet normal -2.8510725117550366e-33 1.0 2.1297698779099999e-32
  outer loop
    vertex 11.999999999999988 3.0 1.9999999999999998
    vertex 8.999999999999986 3.0 17.000000000000007
    vertex 11.999999999999988 3.0 17.00000000000001
  endloop
endfacet
facet normal 1.0 -0.0 0.0
  outer loop
    vertex 3.0 28.999999999999996 1.9999999999999998
    vertex 3.0 3.0 38.0
    vertex 3.0 3.0 1.9999999999999998
  endloop
endfacet
facet normal 1.0 -0.0 0.0
  outer loop
    vertex 3.0 3.0 38.0
    vertex 3.0 28.999999999999996 1.9999999999999998
    vertex 3.0 28.999999999999996 38.0
  endloop
endfacet
facet normal 0.0 0.0 1.0
  outer loop
    vertex 0.0 0.0 38.0
    vertex 3.0 3.0 38.0
    vertex 0.0 31.999999999999996 38.0
  endloop
endfacet
facet normal 0.0 0.0 1.0
  outer loop
    vertex 3.0 3.0 38.0
    vertex 0.0 0.0 38.0
    vertex 66.0 0.0 38.0
  endloop
endfacet
facet normal 0.0 0.0 1.0
  outer loop
    vertex 3.0 3.0 38.0
    vertex 66.0 0.0 38.0
    vertex 63.0 3.0 38.0
  endloop
endfacet
facet normal 0.0 0.0 1.0
  outer loop
    vertex 63.0 3.0 38.0
    vertex 66.0 0.0 38.0
    vertex 63.0 28.999999999999996 38.0
  endloop
endfacet
facet normal 0.0 0.0 1.0
  outer loop
    vertex 0.0 31.999999999999996 38.0
    vertex 3.0 28.999999999999996 38.0
    vertex 66.0 31.999999999999996 38.0
  endloop
endfacet
facet normal 0.0 0.0 1.0
  outer loop
    vertex 3.0 28.999999999999996 38.0
    vertex 0.0 31.999999999999996 38.0
    vertex 3.0 3.0 38.0
  endloop
endfacet
facet normal 0.0 0.0 1.0
  outer loop
    vertex 66.0 31.999999999999996 38.0
    vertex 3.0 28.999999999999996 38.0
    vertex 63.0 28.999999999999996 38.0
  endloop
endfacet
facet normal 0.0 0.0 1.0
  outer loop
    vertex 66.0 31.999999999999996 38.0
    vertex 63.0 28.999999999999996 38.0
    vertex 66.0 0.0 38.0
  endloop
endfacet
endsolid SDCardContainerV1
